<?xml version="1.0" encoding="UTF-8"?>
<svg width="314px" height="118px" viewBox="0 0 314 118" version="1.1" xmlns="http://www.w3.org/2000/svg" xmlns:xlink="http://www.w3.org/1999/xlink">
    <!-- Generator: Sketch 49.3 (51167) - http://www.bohemiancoding.com/sketch -->
    <title>Omegapoint Black</title>
    <desc>Created with Sketch.</desc>
    <defs></defs>
    <g id="OPKOKO-App" stroke="none" stroke-width="1" fill="none" fill-rule="evenodd">
        <g id="iPhone-8---Start" transform="translate(-31.000000, -88.000000)" fill="#FFFFFF" fill-rule="nonzero">
            <g id="Omegapoint-Black" transform="translate(31.000000, 88.000000)">
                <path d="M126.827036,45.5560538 C126.932488,45.8654709 127.143393,46.1748879 127.459751,46.5874439 C127.670657,46.793722 127.987014,46.896861 128.19792,47 L141.274042,47 C141.5904,46.896861 141.906758,46.690583 142.117663,46.4843049 C142.328568,46.2780269 142.434021,45.8654709 142.539474,45.5560538 L142.539474,20.4932735 C142.539474,9.56053812 138.32137,1 124.401626,1 C116.809038,1 111.852766,3.2690583 108.161925,9.04484305 C105.420157,3.57847534 99.5148112,1 92.3440342,1 C84.6459941,1 79.4788165,4.71300448 77.3697644,8.21973094 L77.1588592,8.21973094 L77.1588592,2.85650224 C77.0534066,2.75336323 76.947954,2.5470852 76.8425014,2.44394619 C76.6315962,2.23766816 76.3152384,2.13452915 75.9988805,2.03139013 L63.0282103,2.03139013 C62.7118524,2.13452915 62.3954946,2.34080717 62.0791368,2.5470852 C62.0791368,2.5470852 62.0791368,2.65022422 61.9736842,2.65022422 L61.9736842,45.4529148 C62.0791368,45.7623318 62.290042,46.1748879 62.6063998,46.4843049 C62.817305,46.690583 63.2391155,46.793722 63.6609259,46.896861 L76.3152384,46.896861 C76.6315962,46.793722 77.0534066,46.5874439 77.3697644,46.2780269 C77.5806696,46.0717489 77.6861222,45.7623318 77.7915748,45.3497758 L77.7915748,24.5156951 C77.7915748,18.7399103 79.0570061,13.0672646 87.2823092,13.0672646 C94.5585389,13.0672646 94.3476336,19.7713004 94.3476336,23.1748879 L94.3476336,45.5560538 C94.4530862,45.8654709 94.6639915,46.1748879 94.8748967,46.3811659 C95.0858019,46.5874439 95.6130649,46.793722 96.0348753,46.793722 L108.583735,46.793722 C108.900093,46.690583 109.321903,46.4843049 109.638261,46.1748879 C109.849166,45.9686099 110.060072,45.4529148 110.060072,45.0403587 L110.060072,23.0717489 C110.060072,17.5022422 112.380029,12.9641256 119.656259,12.9641256 C124.823436,12.9641256 126.61613,16.470852 126.61613,20.5964126 L126.61613,45.5560538 L126.827036,45.5560538 Z" id="Shape"></path>
                <path d="M204.513158,26.870614 L204.513158,24.5 C204.513158,10.1732456 194.821229,1 179.484551,1 C162.976321,1 149.769737,10.2763158 149.769737,24.5 C149.769737,38.8267544 162.976321,48 179.484551,48 C187.472404,48 195.566762,45.2171053 200.891998,40.2697368 C201.105007,39.9605263 201.318017,39.6513158 201.318017,39.2390351 C201.318017,39.0328947 201.211512,38.7236842 200.998502,38.5175439 L191.413079,32.5394737 C191.093564,32.4364035 190.77405,32.3333333 190.454536,32.4364035 C190.241527,32.4364035 190.028517,32.6425439 189.815508,32.745614 C187.15289,35.5285088 183.744739,37.4868421 178.739018,37.4868421 C172.774754,37.4868421 167.982042,34.7039474 166.384472,30.0657895 C166.277967,29.7565789 166.064958,29.1381579 166.490976,28.8289474 C166.916995,28.622807 167.556023,28.7258772 167.556023,28.7258772 L202.915587,28.7258772 C203.235101,28.622807 203.66112,28.4166667 204.087139,28.1074561 C204.300148,28.004386 204.406653,27.2828947 204.513158,26.870614 Z M186.939881,19.4495614 L167.0235,19.4495614 C167.0235,19.4495614 166.490976,19.5526316 166.490976,19.2434211 C166.384472,19.0372807 166.490976,18.8311404 166.490976,18.5219298 C167.343014,14.502193 171.283688,10.997807 177.993485,10.997807 C183.425225,10.997807 187.578909,14.2960526 188.004928,18.4188596 C188.004928,18.7280702 188.004928,18.9342105 187.791918,19.2434211 C187.472404,19.4495614 186.939881,19.4495614 186.939881,19.4495614 Z" id="Shape"></path>
                <path d="M289.516463,1 C281.464724,1 273.412985,3.06140351 267.40102,7.08114035 C266.864237,7.49342105 266.542167,7.59649123 266.542167,8.31798246 C266.542167,9.03947368 266.971593,9.24561404 266.971593,9.24561404 L272.339419,14.6052632 C272.339419,14.6052632 272.768846,15.120614 273.412985,15.120614 C274.057124,15.120614 274.271837,14.8114035 274.701263,14.502193 C279.532306,11.3070175 283.719211,10.0701754 288.550254,10.1732456 C295.850497,10.2763158 298.212341,13.2653509 298.749123,17.5942982 C298.749123,17.9035088 298.749123,18.0065789 298.53441,18.2127193 C298.427054,18.4188596 298.212341,18.4188596 297.997628,18.4188596 C284.148637,18.4188596 262.355263,19.0372807 262.355263,34.1885965 C262.355263,43.2587719 271.480567,48 281.464724,48 C288.013471,48 294.454862,46.1447368 298.104984,41.7127193 C298.212341,41.6096491 298.319697,41.6096491 298.53441,41.6096491 C298.749123,41.6096491 298.749123,42.0219298 298.749123,42.0219298 L298.749123,45.3201754 C298.749123,45.3201754 298.749123,46.247807 299.071193,46.5570175 C299.500619,46.8662281 300.144758,46.8662281 300.144758,46.8662281 L312.276045,46.8662281 C312.276045,46.8662281 312.920184,46.9692982 313.456966,46.5570175 C313.993749,46.247807 313.993749,45.4232456 313.993749,45.4232456 L313.993749,24.1907895 C314.208462,9.24561404 308.947993,1 289.516463,1 Z M298.749123,30.375 C298.749123,34.3947368 293.166584,38.620614 286.18841,38.620614 C282.538289,38.620614 278.351385,37.0745614 278.351385,33.7763158 C278.351385,27.6951754 289.838532,26.870614 294.776932,27.2828947 C296.709349,27.5921053 297.675558,28.2105263 297.675558,28.3135965 C298.319697,28.8289474 298.749123,29.8596491 298.749123,30.375 Z" id="Shape"></path>
                <path d="M143.572368,101.011494 L143.572368,60.383908 C143.456082,60.0873563 143.22351,59.7908046 142.874651,59.3954023 C142.642079,59.1977011 142.176934,59.0988506 141.71179,59 L127.75745,59 C127.408592,59.0988506 126.943447,59.2965517 126.594589,59.5931034 C126.24573,59.8896552 126.129444,60.5816092 126.013158,60.9770115 L126.013158,100.912644 C126.129444,101.110345 126.362016,101.406897 126.594589,101.604598 C126.827161,101.802299 127.292306,101.901149 127.641164,102 L141.944362,102 C142.293221,101.901149 142.642079,101.703448 142.990938,101.406897 C143.339796,101.406897 143.456082,101.209195 143.572368,101.011494 Z" id="Shape"></path>
                <path d="M202.447368,100.456376 L202.447368,77.1991051 C202.447368,65.261745 199.352952,56 182.600424,56 C175.237848,56 170.116056,59.0872483 167.55516,62.3803132 C167.341752,62.5861298 167.128344,62.8948546 166.914936,62.7919463 C166.701528,62.689038 166.701528,62.1744966 166.701528,62.1744966 L166.701528,58.3668904 C166.594824,58.0581655 166.381416,57.852349 166.168008,57.5436242 C165.9546,57.3378076 165.527784,57.2348993 165.100968,57.1319911 L151.976376,57.1319911 C151.762968,57.2348993 151.442856,57.4407159 151.229448,57.6465324 C151.01604,57.852349 150.909336,58.1610738 150.802632,58.4697987 L150.802632,100.662192 C150.909336,100.970917 151.122744,101.279642 151.442856,101.588367 C151.54956,101.691275 151.869672,101.794183 152.08308,101.897092 L166.274712,101.897092 C166.48812,101.794183 166.808232,101.588367 167.02164,101.38255 C167.128344,101.279642 167.235048,100.970917 167.341752,100.765101 L167.341752,79.5659955 C167.341752,73.803132 168.6222,68.1431767 177.265224,68.1431767 C185.69484,68.1431767 185.801544,74.7293065 185.801544,79.9776286 L185.801544,100.765101 C185.908248,100.970917 186.121656,101.279642 186.335064,101.588367 C186.548472,101.794183 186.975288,101.897092 187.2954,102 L201.060216,102 C201.380328,101.897092 201.70044,101.691275 202.020552,101.38255 C202.23396,101.073826 202.340664,100.765101 202.447368,100.456376 Z" id="Shape"></path>
                <path d="M227.682125,67.7317017 C228.005413,67.3235017 228.651989,67.2214517 228.651989,67.2214517 L230.483954,67.2214517 C234.040121,67.1194017 239.104965,66.5071017 240.50588,66.5071017 C251.497669,66.4050517 259.256579,57.7308022 259.256579,42.9335529 L259.256579,3.84840488 C259.256579,3.84840488 259.256579,3.13405491 258.717766,2.62380494 C258.178953,2.11355496 257.640139,2.21560496 257.640139,2.21560496 L247.079401,2.21560496 L246.325062,2.21560496 C246.325062,2.21560496 245.786249,2.21560496 245.355198,2.52175494 C244.924148,2.82790493 244.924148,3.64430489 244.924148,3.64430489 L244.924148,6.39965475 C244.924148,6.70580473 244.708623,6.80785473 244.385335,6.80785473 C244.169809,6.80785473 243.846521,6.70580473 243.630996,6.50170474 C241.260218,4.35865485 237.165238,1.80740498 228.113176,2.01150497 C211.841017,2.41970495 207.099461,18.6456541 207.099461,24.4625038 C207.099461,35.3818533 213.241932,46.8114527 229.945141,46.8114527 C234.686697,46.8114527 240.398117,45.8930028 244.277572,42.117153 C244.493097,41.913053 244.60086,42.015103 244.816385,42.015103 C245.03191,42.015103 245.139673,42.6274029 245.139673,42.6274029 L245.139673,45.6889028 C245.139673,52.9344524 241.044693,56.2000522 235.009985,56.2000522 C234.040121,56.2000522 233.285783,56.2000522 232.423682,56.2000522 L228.651989,56.2000522 C228.651989,56.2000522 228.220939,56.3021022 227.789888,55.9959523 C227.251075,55.4857023 227.358838,54.5672523 227.358838,54.5672523 L227.358838,51.5057525 C227.358838,51.5057525 227.4666,51.3016525 227.03555,50.6893525 C226.604499,50.0770526 225.634635,50.0770526 225.634635,50.0770526 L212.379831,50.0770526 C212.379831,50.0770526 211.841017,50.1791026 211.409967,50.5873025 C210.871154,50.9955025 210.763391,51.7098525 210.763391,51.7098525 L210.763391,55.2816023 C210.763391,55.2816023 210.871154,55.5877523 210.547866,55.7918523 C210.33234,55.9959523 209.578002,56.2000522 209.578002,56.2000522 L205.483022,56.2000522 C205.483022,56.2000522 205.267496,56.2000522 204.728683,56.7103022 C204.513158,56.9144022 204.513158,57.6287522 204.513158,57.6287522 L204.513158,66.3030017 C204.513158,66.3030017 204.513158,66.9153017 204.728683,67.1194017 C205.051971,67.3235017 205.483022,67.3235017 205.483022,67.3235017 L209.470239,67.3235017 C209.470239,67.3235017 209.685765,67.2214517 210.440103,67.7317017 C210.763391,68.0378517 210.763391,68.6501516 210.763391,68.6501516 L210.763391,87.5294007 C210.763391,97.2241502 219.27664,101 230.483954,101 C231.669343,101 233.070257,100.89795 234.578934,100.7959 C234.902222,100.7959 235.333273,100.69385 235.548798,100.3877 C235.764323,100.08155 235.764323,99.5713001 235.764323,99.5713001 L235.764323,90.8970505 C235.764323,90.8970505 235.764323,89.6724506 235.656561,89.5704006 C235.22551,89.2642506 234.902222,89.3663006 234.578934,89.2642506 C228.436464,88.8560506 227.574363,85.5904508 227.574363,81.202301 L227.574363,68.4460516 C227.358838,68.3440016 227.358838,68.2419516 227.682125,67.7317017 Z M232.100394,36.0962033 C223.37162,36.0962033 219.70769,31.2998535 219.70769,24.3604538 C219.70769,17.4210542 226.388974,12.9308544 231.022767,12.9308544 C242.014557,12.9308544 244.60086,20.482554 244.60086,24.7686538 C244.60086,34.1572534 234.686697,36.0962033 232.100394,36.0962033 Z" id="Shape"></path>
                <path d="M95.5968672,103 C112.36911,103 123.947368,93.2564103 123.947368,78.6923077 C123.947368,64.1282051 112.36911,55 95.5968672,55 C78.8246241,55 67.1381579,64.4358974 67.1381579,79.1025641 C67.1381579,93.6666667 78.8246241,103 95.5968672,103 Z M95.5968672,67.4102564 C106.634085,67.4102564 109.014662,73.8717949 109.014662,79 C109.014662,89.1538462 100.033396,90.5897436 95.5968672,90.5897436 C87.8058897,90.5897436 82.1790727,86.4871795 82.1790727,79 C82.1790727,72.9487179 84.5596491,67.4102564 95.5968672,67.4102564 Z" id="Shape"></path>
                <ellipse id="Oval" cx="254.092105" cy="91" rx="11.3618421" ry="10"></ellipse>
                <path d="M36.6308741,56 C29.1559779,56 23.8167664,58.7623762 21.2539449,62.0363036 L21.0403764,62.0363036 L21.0403764,57.4323432 C20.9335922,57.1254125 20.7200237,56.8184818 20.5064553,56.6138614 C20.2928868,56.4092409 19.9725341,56.3069307 19.5453972,56.2046205 L7.47877918,56.2046205 C7.15842649,56.3069307 6.8380738,56.5115512 6.51772111,56.8184818 C6.30415265,57.0231023 6.19736842,57.2277228 6.19736842,57.5346535 L6.19736842,116.772277 C6.30415265,117.079208 6.51772111,117.386139 6.8380738,117.693069 C6.94485803,117.79538 7.15842649,117.89769 7.37199495,118 L20.5064553,118 C20.7200237,117.89769 20.9335922,117.79538 21.1471607,117.590759 C21.2539449,117.488449 21.3607291,117.386139 21.3607291,117.283828 L21.3607291,96.1056106 L21.5742976,96.1056106 C25.3117456,100.40264 31.7187995,101.937294 38.5529902,101.937294 C53.7163509,101.937294 63.0065789,90.5808581 63.0065789,78.2013201 C63.0065789,64.4917492 52.4349401,56 36.6308741,56 Z M35.9901687,89.660066 C27.7677829,89.660066 22.7489241,85.0561056 22.7489241,78.4059406 C22.7489241,71.7557756 28.6220568,67.1518152 35.9901687,67.1518152 C44.2125544,67.1518152 49.2314132,71.7557756 49.2314132,78.4059406 C49.2314132,84.8514851 45.7075336,89.660066 35.9901687,89.660066 Z" id="Shape"></path>
                <path d="M28.4590778,48 C45.2311029,48 56.8092105,38.2564103 56.8092105,23.6923077 C56.8092105,9.12820513 45.2311029,0 28.4590778,0 C11.6870527,0 0.000738424036,9.43589744 0.000738424036,24.1025641 C-0.107468189,38.6666667 11.6870527,48 28.4590778,48 Z M28.4590778,12.4102564 C39.4961524,12.4102564 41.8766979,18.8717949 41.8766979,24 C41.8766979,34.1538462 32.8955489,35.5897436 28.4590778,35.5897436 C20.6682016,35.5897436 15.0414577,31.4871795 15.0414577,24 C15.0414577,17.9487179 17.4220032,12.4102564 28.4590778,12.4102564 Z" id="Shape"></path>
            </g>
        </g>
    </g>
</svg>