<?xml version="1.0" encoding="utf-8"?>
<!-- Generator: Adobe Illustrator 22.0.1, SVG Export Plug-In . SVG Version: 6.00 Build 0)  -->
<svg version="1.1" id="Lager_1" xmlns="http://www.w3.org/2000/svg" xmlns:xlink="http://www.w3.org/1999/xlink" x="0px" y="0px"
	 viewBox="0 0 841.9 595.3" style="enable-background:new 0 0 841.9 595.3;" xml:space="preserve">
<style type="text/css">
	.st0{fill:#FFFFFF;}
</style>
<g>
	<path class="st0" d="M344.9,298.4c0-1.5,0.3-2.9,0.9-4.1s1.4-2.3,2.5-3.1c1-0.9,2.3-1.5,3.7-2c1.4-0.5,2.9-0.7,4.5-0.7
		s3.1,0.2,4.5,0.7s2.6,1.1,3.7,2c1,0.9,1.9,1.9,2.5,3.1s0.9,2.6,0.9,4.1s-0.3,2.9-0.9,4.1s-1.4,2.3-2.5,3.1c-1,0.9-2.3,1.5-3.7,2
		c-1.4,0.5-2.9,0.7-4.5,0.7s-3.1-0.2-4.5-0.7s-2.6-1.1-3.7-2c-1-0.9-1.9-1.9-2.5-3.1C345.2,301.3,344.9,299.9,344.9,298.4z
		 M351.3,298.4c0,1.4,0.5,2.6,1.4,3.5s2.2,1.3,3.8,1.3c1.6,0,2.9-0.4,3.8-1.3s1.4-2,1.4-3.5c0-1.4-0.5-2.6-1.4-3.5s-2.2-1.3-3.8-1.3
		c-1.6,0-2.9,0.4-3.8,1.3C351.7,295.8,351.3,297,351.3,298.4z"/>
</g>
<g>
	<path class="st0" d="M371.2,289.5c0-0.3,0.3-0.6,0.6-0.6h4.8c0.3,0,0.6,0.3,0.6,0.6v1.4c0,0.3,0,0.6,0,0.6s0.2-0.2,0.4-0.4
		c0,0,0.2-0.3,0.6-0.6c0.4-0.4,0.9-0.7,1.5-1s1.2-0.5,1.8-0.7c0.7-0.2,1.4-0.3,2.1-0.3c1.5,0,2.9,0.2,4.2,0.7c1.3,0.5,2.3,1.2,3.2,2
		c0.9,0.9,1.6,1.9,2.1,3.1s0.7,2.5,0.7,3.9c0,1.3-0.2,2.6-0.7,3.8c-0.4,1.2-1.1,2.3-1.9,3.2c-0.8,0.9-1.8,1.7-3,2.2
		c-1.2,0.6-2.5,0.8-4,0.8c-1.3,0-2.6-0.2-3.8-0.6c-1.2-0.4-2.4-1.5-2.4-1.5c-0.2-0.2-0.4-0.4-0.5-0.4c0,0,0,0.3,0,0.6v6.8
		c0,0.3-0.3,0.6-0.6,0.6h-5.3c-0.3,0-0.6-0.3-0.6-0.6v-23.6H371.2z M377.1,298.4c0,1.4,0.5,2.6,1.4,3.5s2.2,1.3,3.8,1.3
		c1.6,0,2.9-0.4,3.8-1.3s1.4-2,1.4-3.5c0-1.4-0.5-2.6-1.4-3.5s-2.2-1.3-3.8-1.3c-1.6,0-2.9,0.4-3.8,1.3S377.1,297,377.1,298.4z"/>
</g>
<g>
	<path class="st0" d="M396.4,282c0-0.3,0.3-0.6,0.6-0.6h5.3c0.3,0,0.6,0.3,0.6,0.6v13.9c0,0.3,0.2,0.4,0.4,0.2l6.3-6.7
		c0.2-0.2,0.6-0.4,1-0.4h6.8c0.3,0,0.4,0.2,0.2,0.4l-7.5,7.7c-0.2,0.2-0.2,0.6,0,0.8l7.8,9.5c0.2,0.2,0.1,0.4-0.2,0.4h-7
		c-0.3,0-0.7-0.2-0.9-0.5l-6.4-8.7c-0.2-0.3-0.4-0.5-0.4-0.5s0,0.3,0,0.6v8.5c0,0.3-0.3,0.6-0.6,0.6H397c-0.3,0-0.6-0.3-0.6-0.6V282
		z"/>
</g>
<g>
	<path class="st0" d="M416.2,298.4c0-1.5,0.3-2.9,0.9-4.1s1.4-2.3,2.5-3.1c1-0.9,2.3-1.5,3.7-2c1.4-0.5,2.9-0.7,4.5-0.7
		s3.1,0.2,4.5,0.7s2.6,1.1,3.7,2s1.9,1.9,2.5,3.1s0.9,2.6,0.9,4.1s-0.3,2.9-0.9,4.1s-1.4,2.3-2.5,3.1c-1,0.9-2.3,1.5-3.7,2
		c-1.4,0.5-2.9,0.7-4.5,0.7s-3.1-0.2-4.5-0.7s-2.6-1.1-3.7-2c-1-0.9-1.9-1.9-2.5-3.1S416.2,299.9,416.2,298.4z M422.7,298.4
		c0,1.4,0.5,2.6,1.4,3.5s2.2,1.3,3.8,1.3c1.6,0,2.9-0.4,3.8-1.3s1.4-2,1.4-3.5c0-1.4-0.5-2.6-1.4-3.5s-2.2-1.3-3.8-1.3
		c-1.6,0-2.9,0.4-3.8,1.3C423.1,295.8,422.7,297,422.7,298.4z"/>
</g>
<g>
	<path class="st0" d="M442,282c0-0.3,0.3-0.6,0.6-0.6h5.3c0.3,0,0.6,0.3,0.6,0.6v13.9c0,0.3,0.2,0.4,0.4,0.2l6.3-6.7
		c0.2-0.2,0.6-0.4,1-0.4h6.8c0.3,0,0.4,0.2,0.2,0.4l-7.5,7.7c-0.2,0.2-0.2,0.6,0,0.8l7.8,9.5c0.2,0.2,0.1,0.4-0.2,0.4h-7
		c-0.3,0-0.7-0.2-0.9-0.5l-6.4-8.7c-0.2-0.3-0.4-0.5-0.4-0.5s0,0.3,0,0.6v8.5c0,0.3-0.3,0.6-0.6,0.6h-5.3c-0.3,0-0.6-0.3-0.6-0.6
		L442,282L442,282z"/>
</g>
<g>
	<path class="st0" d="M461.8,298.4c0-1.5,0.3-2.9,0.9-4.1s1.4-2.3,2.5-3.1c1-0.9,2.3-1.5,3.7-2c1.4-0.5,2.9-0.7,4.5-0.7
		s3.1,0.2,4.5,0.7s2.6,1.1,3.7,2s1.9,1.9,2.5,3.1s0.9,2.6,0.9,4.1s-0.3,2.9-0.9,4.1s-1.4,2.3-2.5,3.1c-1,0.9-2.3,1.5-3.7,2
		c-1.4,0.5-2.9,0.7-4.5,0.7s-3.1-0.2-4.5-0.7s-2.6-1.1-3.7-2c-1-0.9-1.9-1.9-2.5-3.1C462.1,301.3,461.8,299.9,461.8,298.4z
		 M468.3,298.4c0,1.4,0.5,2.6,1.4,3.5s2.2,1.3,3.8,1.3c1.6,0,2.9-0.4,3.8-1.3s1.4-2,1.4-3.5c0-1.4-0.5-2.6-1.4-3.5s-2.2-1.3-3.8-1.3
		c-1.6,0-2.9,0.4-3.8,1.3C468.7,295.8,468.3,297,468.3,298.4z"/>
</g>
<g>
	<path class="st0" d="M486.7,304c0-0.6,0.1-1.1,0.3-1.6c0.2-0.5,0.6-1,1-1.3c0.4-0.4,0.9-0.7,1.5-0.9c0.6-0.2,1.2-0.3,1.8-0.3
		c0.6,0,1.2,0.1,1.8,0.3c0.6,0.2,1,0.5,1.5,0.9c0.4,0.4,0.7,0.8,1,1.3c0.2,0.5,0.3,1,0.3,1.6s-0.1,1.1-0.3,1.6c-0.2,0.5-0.6,1-1,1.3
		c-0.4,0.4-0.9,0.7-1.5,0.9c-0.6,0.2-1.2,0.3-1.8,0.3c-0.6,0-1.2-0.1-1.8-0.3c-0.6-0.2-1-0.5-1.5-0.9c-0.4-0.4-0.7-0.8-1-1.3
		C486.8,305.1,486.7,304.6,486.7,304z"/>
</g>
</svg>
