<svg id="Layer_1" data-name="Layer 1" xmlns="http://www.w3.org/2000/svg" viewBox="0 0 695.06 857.44">
  <title>xkcd-sql-vuln-immitation</title>
  <g>
    <path d="M375.82,866.25c-1.78,4.55-3.21,7.88-4.4,11.29-3.84,11.1-8.14,22.07-10.07,33.75a17.39,17.39,0,0,1-1.19,3.66c-1.16,2.86-2.92,3.73-5.5,2.8-2.23-.8-3.05-2.53-2-5.42,2.5-7.1,5.5-14,7.73-21.22,3.27-10.5,6.64-21,8.82-31.79a54.39,54.39,0,0,0-.28-21.78c-.74-3.59-1.09-7.25-1.7-10.86a13.49,13.49,0,0,0-1.27-2.62c-.82,1.58-1.64,2.53-1.82,3.58-1.46,8.48-3.49,16.79-3.35,25.6.1,6.07-2.24,12.18-3.56,18.27a3.21,3.21,0,0,1-4.07,2.72,3.43,3.43,0,0,1-2.89-4.07c.69-5.46,1.38-10.93,2.27-16.36,2.32-14.13,4.79-28.23,7.1-42.36.59-3.62.84-7.29,1.19-10.94.25-2.72-.32-5-3-6.55-3.64-2.12-7.14-4.48-10.72-6.71-13.26-8.3-20.88-20.43-23.69-35.59-2.85-15.37,1.72-28.33,14.12-38,3.38-2.63,7.71-4.13,11.75-5.77,3-1.23,6.13-.4,9.07,1a29.39,29.39,0,0,0,5.62,2.06c15.29,3.44,26.81,12.2,33.37,26.18,5.33,11.39,5.4,23.87,2.83,36.2-.67,3.24-1.2,6.61-2.58,9.56a84,84,0,0,1-7.22,12.22,7.78,7.78,0,0,1-4.65,2.61c-5.19.95-10.45,1.5-16.26,2.28-.58,3.62.1,7.33,4.09,9.72,9.25,5.56,18.57,11,28.45,16.87,2.89-4.69,5.75-8.91,8.16-13.38,2.53-4.72,6.05-8.92,5.14-15.19-.48-3.33,1.72-7,2.49-10.58q2.85-13.17,5.48-26.39c.59-2.95,5.17-5,8.26-3.5.47.23.74.92,1.21,1.08,7.45,2.45,7.7,8,6.89,14.56-.71,5.8-.45,11.73-.6,17.6,0,.73.1,1.46.09,2.19-.17,8.13-5.82,12.49-14.84,9.44a29.18,29.18,0,0,0-2.07,3c-4.67,8.92-9.24,17.91-14,26.78-.69,1.29-2.27,2.09-3.48,3.15-9.66-9-21.49-13.2-32.42-19.44-.26.77-.61,1.27-.54,1.69,1.68,10,4,19.85,4.91,29.87.58,6.48,2.8,11.76,6.05,17.14,9.12,15.09,16.55,31.16,26.71,45.65,1.34,1.91,2,4.32,2.83,6.55a3.67,3.67,0,0,1-1.6,4.77c-1.83,1.17-3.15.22-4.25-1.16a10.79,10.79,0,0,1-2.11-3.16c-4.25-12.9-12.22-23.8-18.81-35.44-2.18-3.84-4.45-7.62-6.72-11.4C378.14,869.33,377.34,868.36,375.82,866.25ZM360.19,721.37c-.67-.87-1-1.28-1.33-1.74-2.87-4.35-4.22-5-9-3.22a65.45,65.45,0,0,0-7.8,4c-.91.47-2.09,1.56-2.68,1.3-2.55-1.1-3.35.94-4.4,2.23-5.62,6.88-6.73,15.27-5.82,23.47,1.71,15.3,9,27.82,21.8,36.76,3.47,2.41,7,4.74,10.61,6.94,9.57,5.86,22.93,2.26,27.62-7.81a63.45,63.45,0,0,0,5.05-15.61A55.28,55.28,0,0,0,393,742.07c-3.64-12-12.71-18.91-23.3-24.33-2.07-1.06-3.72-1-5.4.87C363.23,719.73,361.69,720.38,360.19,721.37Z" transform="translate(-43.5 -64.64)"/>
    <path d="M457.43,195.7c6.34,7.6,14.13,11.88,23.77,12.67,7.69.64,15.37,1.36,23.08,1.8,4,.22,8-.14,11.93-.16,9.18,0,18.36.11,27.53-.07,7.61-.16,15.21-.69,22.81-1,7.25-.33,14.5-.81,21.74-.9,9.31-.12,18.62.14,27.93.11,8,0,15.95-.24,23.93-.32,5.68,0,11.36.11,17,0,15.23-.38,30.45-.76,45.67-1.38,6.76-.28,13.49-1.18,20.24-1.75,3.13-.26,6.26-.49,9.4-.52a2.74,2.74,0,0,1,2.15,1.31c.39,1.15-.69,1.66-1.71,1.83a19.28,19.28,0,0,1-4.66.6c-8.27-.76-16.41.78-24.62,1.1-10,.39-20,.37-30.08.58-3,.06-6,.32-9.05.42-8.1.26-16.19.59-24.29.69-12,.15-24,.06-35.92.19-10.28.12-20.55.29-30.82.67-6.64.25-13.25,1-19.88,1.39-4.46.28-8.93.53-13.4.62-10.26.22-20.54.67-30.79.37-8.67-.25-17.37.05-26-1.53-5.21-.95-10.55-1.12-15.56-3.1a21.16,21.16,0,0,1-10.25-7.75C456.08,199.28,456,198.9,457.43,195.7Z" transform="translate(-43.5 -64.64)"/>
    <path d="M257.16,332.85c-2.19-4-4.54-7.85-6.5-11.92-1.31-2.73-2.28-2.38-4.67-2.25-2.59.15-3,.54-3.62,3.17-.36,1.53-.56,3.09-.85,4.63-.38,1.95-1.41,2.93-2.76,2.65s-1.88-1.81-1.48-3.56c1.38-6,2.65-12,4.12-18a7.7,7.7,0,0,1,2.54-3.72c-.3-1.21-.61-2.42-.89-3.52,1.5-1.16,2.61-.79,3.37.34a20.68,20.68,0,0,1,2,3.82c.68,1.66,1.17,3.39,1.89,5.49a99.45,99.45,0,0,0,9.86-2.73,14.11,14.11,0,0,1,6.28-1.07c3.11.21,6.23.36,9.34.54.47,0,1.1.2,1.39,0,3.17-2.52,7-1.86,10.57-2,2.94-.14,5.95.83,8.91,1.35a2.19,2.19,0,0,1,1.27.65c.41.53.92,1.28.8,1.81s-1.12.92-1.66.86c-1.92-.23-3.79-.81-5.71-1a71.44,71.44,0,0,0-7.17-.39c-1.67,0-2.32,1.07-2.16,2.67s.19,3,2.28,3c4.68.08,9,1.56,13.3,3.29.67.28,1.57.44,1.91,1a4.09,4.09,0,0,1,.59,2.53c0,.27-1.46.73-2.08.54-2.43-.75-4.78-1.72-7.16-2.59a19.13,19.13,0,0,0-2.08-.63c-1.84-.43-4.21-1.8-5.4,0-1.52,2.25,0,4.91,1,7.2.86,1.89,2.5,2.43,4.95,1.93s4.71-1.06,7.07-1.53a4.13,4.13,0,0,1,2.15,0,2.62,2.62,0,0,1,1.35,1.5c.12.37-.39,1.22-.82,1.43-4.41,2.14-9,4.09-13.9,2.21-4.4-1.68-5.62-5.66-6.15-9.92-.42-3.45-.88-6.89-1.36-10.66H267.22c0,6.28,3.73,11.95,2.78,18.51-2.67-.67-3.43-2.36-3.92-4.26-.91-3.51-1.78-7-2.69-10.54-.21-.81-.49-1.59-.83-2.7l-11.16,1.44c-.51,2,.94,2.37,2.38,2.72,1.78.43,3.5.94,4.25,3.18l-4,1c1.1,4.64,4.86,8.35,4,13.31Zm-9.82-18.2c-.28-1.69-.29-3-1.93-4-.35,1.53-.62,2.7-.95,4.18Z" transform="translate(-43.5 -64.64)"/>
    <path d="M179.45,493.65c.48-11.35.86-21.38,1.33-31.41.33-6.88.42-13.8,1.28-20.61,1-7.74.78-15.69,3.63-23.14.3-.79.37-1.81.92-2.31a3,3,0,0,1,2.46-.75,2.56,2.56,0,0,1,.9,2.33c-4.72,15.22-4.81,31-5.39,46.66-.28,7.62-.8,15.23-1.1,22.84-.19,4.95-.17,9.9-.26,14.85-.12,6.29-.5,12.58-.35,18.86.32,13.41.7,26.83,1.48,40.22.39,6.49,1.42,12.95,1.53,19.49a44.82,44.82,0,0,0,1.13,6.73c.09.48.26.94.32,1.41.24,2-.34,3.11-1.78,3.46s-2.76-.67-3.25-2.62a3.64,3.64,0,0,1-.13-.72c-.26-5.89-.53-11.78-.77-17.67,0-1,.14-1.95,0-2.9a345,345,0,0,1-1.94-40.91c0-8.21,0-16.42,0-24.63Z" transform="translate(-43.5 -64.64)"/>
    <path d="M247.92,501.56c4.93-1.37,9.73-3.42,15.15-.76.83-.91,1.8-1.94,2.74-3,4.21-4.75,9-4.11,12.27,0a37.71,37.71,0,0,1,3.28,4.77c1.65,2.92,1.19,5.83-.48,8.6a3.26,3.26,0,0,1-1.28,1.22c-8,3.8-16.47.52-18.36-6.83a2.79,2.79,0,0,0-3.19-2.33c-2.86.37-5.68,1-8.5,1.68-1.43.32-1.9,1.37-1.59,2.77.49,2.25,1,4.49,1.5,6.72a14.42,14.42,0,0,0,.6,1.71c.48,1.28.38,2.43-.91,3.14-1,.56-2.6-.25-3-1.83-.8-3-1.35-6.13-2-9a9,9,0,0,1-2.54-1.78c-.23-.32.67-1.37.93-2.13a10.66,10.66,0,0,0,1-3.65c-.09-2.5-.59-5-.92-7.51-3.18.19-6.11.36-9,.5-.09,0-.19-.4-.42-.92a9.8,9.8,0,0,1,2-1.15,53.07,53.07,0,0,1,18.15-2.88,6.36,6.36,0,0,1,5.64,2.9c-.42,2.18-1.91,1.76-3.55,1.56-3-.37-6-.52-8.94-.71a2.22,2.22,0,0,0-1,.26C246.28,495.77,247.05,498.49,247.92,501.56Zm23.13,8.2c.92-.07,2-.08,3.07-.26,3.07-.53,4.3-2.17,4.05-5.27-.21-2.61-1.57-4.94-3.76-5.68a5.8,5.8,0,0,0-6.13,2c-.46.55-1,1.07-1.41,1.63a5,5,0,0,0-.6,5.72C267.24,510,269.08,509.83,271.05,509.76Z" transform="translate(-43.5 -64.64)"/>
    <path d="M186.93,215.65a17,17,0,0,1-.71-3.25c-.2-7.33.46-14.59,4.08-21.1a68.44,68.44,0,0,1,7.45-10.22c3.17-3.79,6.7-7.28,10-11,.93-1.06,1.39-2.51,2.21-3.68,2.06-3,4.24-5.88,6.29-8.86a52.41,52.41,0,0,0,9.1-22.3c.56-3.87,1.07-7.93-.73-11.78a2.26,2.26,0,0,1,.67-2.07c.55-.4,1.9-.56,2.27-.19a9.24,9.24,0,0,1,2.3,3.51c1.36,4.21,0,8.37-.58,12.53-1.62,11-7.4,20.11-14,28.69-5.43,7.1-11.42,13.77-17,20.75a37.78,37.78,0,0,0-8.41,22.73,16.74,16.74,0,0,1-.46,4,10.56,10.56,0,0,1-1.52,2.47Z" transform="translate(-43.5 -64.64)"/>
    <path d="M272.84,727a12.33,12.33,0,0,1-3.32.58c-5.4-.56-10.84-1-16.15-2a115.94,115.94,0,0,1-31.26-11.22,26.53,26.53,0,0,1-8.66-7.5c-4.61-5.89-8.87-12-11.2-19.29-1.51-4.71-3.53-9.23-3.74-14.27-.12-2.89.18-3.45,3.14-4.85a8,8,0,0,1,.79,2.58c-.41,6.83,2.48,12.77,5.2,18.67a54,54,0,0,0,9.24,14.25,28.11,28.11,0,0,0,5.05,4.59A71.71,71.71,0,0,0,238.74,717c7.58,2.51,15.07,5.14,23.16,5.71A22.71,22.71,0,0,1,272.77,726C272.79,726.33,272.81,726.66,272.84,727Z" transform="translate(-43.5 -64.64)"/>
    <path d="M405.17,561c-6.28-.59-12.48-1.39-18.91-4.21.35,1.88.61,3.24.86,4.6a11.82,11.82,0,0,1,.42,2.47,1.6,1.6,0,0,1-2.56,1.37,7.69,7.69,0,0,1-2.2-2.75c-1.21-2.47-2-5.15-3.37-7.53-2.62-4.59-1.6-8.91.8-13,1.65-2.83,4.73-3.21,7.67-2.92a24.2,24.2,0,0,1,6.28,1.62c3.21,1.26,4.15,3.81,3,7.06s-3.67,5-6.74,6.6c2.68,1.65,5.43,2,8.07,2.58A11.48,11.48,0,0,1,405.17,561ZM393.1,543.76c-3.21-.68-6.18-1.73-9.11.7.62,2.19,1.22,4.3,1.8,6.37C391.33,549.68,392.79,548.29,393.1,543.76Z" transform="translate(-43.5 -64.64)"/>
    <path d="M107.24,629.4c1.61-4.3,1.43-8,1.56-11.76.1-3,1.38-3.68,4.43-2.79-.39,5.79-.79,11.54-1.15,17.3a33.67,33.67,0,0,0,0,3.62c.06,1.15,0,2.4-1.35,2.59a6.9,6.9,0,0,1-3.33-.56,3,3,0,0,1-1.25-1.69c-2.1-5.5-6.25-9.34-10.47-13.14-.06-.05-.23,0-.74.06.38,5.21.34,10.45,1.86,15.55a12.68,12.68,0,0,1,.7,2.79c.08,1.28-.35,2.46-1.86,2.66a2.48,2.48,0,0,1-2.94-2,11.33,11.33,0,0,1-.14-1.44c-.8-6.22-1.55-12.45-2.45-18.65-.2-1.41-1-2.72-1.33-4.12-.17-.73-.18-2,.21-2.25a2.92,2.92,0,0,1,2.58-.14c3.21,2.31,6.39,4.7,9.36,7.32C103.12,624.58,104.9,626.86,107.24,629.4Z" transform="translate(-43.5 -64.64)"/>
    <path d="M298.43,510.46c4.49.85,9,1.72,13.47,2.53,2.24.41,4.55.61,6.19,2.56-2.74,1.51-10.45.79-21.18-1.94a3.72,3.72,0,0,1-.35.95c-.5.72-1,1.92-1.6,2-.75.07-1.59-.79-2.34-1.33a2.1,2.1,0,0,1-.55-.93,72.39,72.39,0,0,1-5.28-18.41c0-.19.18-.42.06-.17,2.24-1.12,4.06-2.14,6-3,3-1.33,6.22-2.12,9.5-1.21a5.37,5.37,0,0,1,3.41,8,63,63,0,0,1-4.74,6.37c-.93,1.21-1.94,2.36-2.91,3.54ZM294,507.29c2-2.05,3.83-3.9,5.57-5.87,1.5-1.7,2.78-3.56,1.82-6C293.31,495.06,290.08,498.91,294,507.29Z" transform="translate(-43.5 -64.64)"/>
    <path d="M99.13,386.89c-2.6,3.12-5.73,2.13-8.75,2-3.37-.19-5.62-2.43-8.63-4.16.28,1.43.57,2.86.85,4.29.21,1.09.47,2.31-.91,2.75a2.27,2.27,0,0,1-3-1.37A10.38,10.38,0,0,1,78,388c-.71-4.28-1.4-8.57-2-12.86-.22-1.46-.49-2.56-2.06-3.44-2.31-1.3-2.06-3.46.4-4.69,3.83-1.93,7.85-3.06,12.23-2.09,4.74,1.05,6.77,4.34,5,8.85a31.52,31.52,0,0,1-3.76,6.53c-1.7,2.41-1.59,3.54,1.2,4.52A42.68,42.68,0,0,0,94.6,386C96.11,386.31,97.62,386.59,99.13,386.89Zm-19.91-17.6c.52,3.6,1,7.08,1.54,10.65,4.15-1.51,7.2-5.51,7.3-9.05a1.94,1.94,0,0,0-1.77-2.27C84,368.24,81.78,367.87,79.22,369.29Z" transform="translate(-43.5 -64.64)"/>
    <path d="M144.89,325.53c3,2.54,6.54,2.53,9.72,3.45,0,2.16-1.2,2.59-2.62,2.51a13.57,13.57,0,0,1-3.9-.71c-2.83-1-5.63-2.17-8.37-3.44-1.64-.75-2.77-2-2-3.67,2.15-1,4-1.69,5.78-2.66,2.52-1.42,3.15-3.91,3-6.55,0-.79-.79-2.13-1.35-2.2a20.57,20.57,0,0,0-6.77-.15c-2.66.55-3.6,2.41-3.15,5.28.57,3.69,1.33,7.34,2.08,11,.25,1.23.72,2.47-.87,3a2.19,2.19,0,0,1-2.87-1.56,60.26,60.26,0,0,1-2.28-7.6c-.64-2.95-1-5.95-1.46-8.93-.41-2.56.09-3.21,2.63-3.51a5.92,5.92,0,0,0,2.39-.63c3.55-2.25,7.27-1.57,10.86-.5,5.43,1.62,7.2,6.91,3.93,11.54A59,59,0,0,1,144.89,325.53Z" transform="translate(-43.5 -64.64)"/>
    <path d="M285.28,249.13l-7,1.73a11.18,11.18,0,0,1,.76-2.2,2.62,2.62,0,0,1,1.12-.89,37.89,37.89,0,0,1,14.65-3.72,10.47,10.47,0,0,1,7.72,3c2.61.06,4.7-2.8,7.27-.78.08,1.78-1.28,2-2.32,2.48a16.52,16.52,0,0,0-3.46,1.9c-1.39,1.19-1.27,2.59.25,3.61a19.58,19.58,0,0,0,3.59,1.67c1.9.78,3.82,1.5,5.74,2.24a4.91,4.91,0,0,1,3,3.31c-3.57,4.58-7.79,5.84-11.66,3.36,1.84-1.69,5-1.25,6.27-4a21.07,21.07,0,0,0-2.12-1.21c-1.11-.48-2.27-.83-3.41-1.24-4-1.39-7-3.52-6.22-8.45-3.22-2.17-6.58-2.2-10.56-1.46,1.17,5.8,2.34,11.42,3.42,17.06a2.66,2.66,0,0,1-.44,2.15,1.8,1.8,0,0,1-2.8-.58,6.64,6.64,0,0,1-.84-2.37c-.8-3.9-1.54-7.82-2.29-11.74C285.69,251.91,285.55,250.84,285.28,249.13Z" transform="translate(-43.5 -64.64)"/>
    <path d="M562.53,436.26a11.57,11.57,0,0,1-2.73,0c-3.89-1.07-7.39.11-10.87,1.63-1.59.7-2.16,1.78-1.47,3.74,2-.21,4-.53,6-.62a39.69,39.69,0,0,1,5.77.13,4.57,4.57,0,0,1,2.6,1.11,7.09,7.09,0,0,1,1,2.49c-.83.27-1.77.93-2.49.74a23.44,23.44,0,0,0-10.76-.32c-.46.1-.9.28-1.53.47-.71,3.33,1.07,6,2,9.34,1.86-.4,3.46-.78,5.08-1.07a52.06,52.06,0,0,1,5.67-.85c1.47-.1,2.59.55,2.51,2.68-1.08.43-2.25,1-3.46,1.37-2.51.85-5,1.62-7.55,2.45-3.24,1.08-4.65.34-5.66-3-.59-2-1.26-3.9-1.85-5.87-.52-1.74-.61-3.77-3.78-3.59,2.35-3.58,2.13-6.92,1.92-10.25-.08-1.3.63-2.3,1.89-2,2,.39,3.49-.62,5.07-1.47a13.44,13.44,0,0,1,9.5-1.14C561.6,432.66,561.83,433,562.53,436.26Z" transform="translate(-43.5 -64.64)"/>
    <path d="M253,448c-.41-4.39-.61-8.46-2.16-12.36-.48-1.2-1.48-3,.65-3.64,1.75-.5,2.63,1.07,3,2.52.75,3.42,1.22,6.9,2,10.31a25.7,25.7,0,0,0,1.93,4.28c-1.59,1.22-1.09,3.31-.54,5.45,1,4,2,8,2.94,12a17.27,17.27,0,0,1,.21,2.29c-2.45-.18-3.74-1.3-4.24-3.42-.81-3.4-1.63-6.81-2.43-10.22-.26-1.14-.47-2.3-.77-3.78l-7.88,2.23c.39,2.72.73,5.2,1.08,7.68a17.67,17.67,0,0,1,.31,2.15c0,1-.17,2-1.44,2.13a1.75,1.75,0,0,1-2.17-1.81c-.27-2.88-.54-5.75-.82-8.68l-2.35-.94c0-.34,0-.67.09-.8,1.67-1.74,1.83-3.69,1.38-6-.8-4-1.28-8.11-1.83-12.18a10.82,10.82,0,0,1,.2-2.35c2.2-.61,2.52.91,2.78,2.15.76,3.66,1.39,7.34,2,11,.22,1.26.35,2.54.57,4.24Z" transform="translate(-43.5 -64.64)"/>
    <path d="M452.86,550.33c1,.64,1.87,1.09,2.64,1.62,2,1.43,2.6,3,1.29,4.94-1.76,2.63-4,4.91-7.36,5.37a5.06,5.06,0,0,1-5.27-2.25c3.63-.79,6.6-2.12,8.59-5.61-1.4-.62-2.7-1.13-3.93-1.77-2.34-1.24-2.53-3-.5-4.73a7.41,7.41,0,0,0,3-5.76,16.39,16.39,0,0,0-9.89-.68,35,35,0,0,0,1,12.74c.21.7.39,1.4.63,2.08.41,1.19.88,2.58-.66,3.08s-2.64-.67-3.07-1.93a52.28,52.28,0,0,1-1.62-6.67c-.32-1.66-.32-3.37-.67-5a41.63,41.63,0,0,0-1.57-5.47c-.69-1.84-.44-2.77,1.41-3.25a10.38,10.38,0,0,1,3.57-.46c3,.27,6,.75,9,1.18a11.52,11.52,0,0,1,1.76.4c4.54,1.39,5.73,4,3.75,8.24C454.32,547.67,453.61,548.91,452.86,550.33Z" transform="translate(-43.5 -64.64)"/>
    <path d="M206.43,87.45c-2.94-.29-7.41.93-12.71,3.4.13,1.25.28,2.65.41,4a47,47,0,0,1,.44,6.13c0,.6-1.15,1.34-1.92,1.63-.25.1-1.37-1-1.4-1.56-.5-10.18-3-20-4.51-30.06a7.44,7.44,0,0,1,.11-1.7c3-.11,3.42.21,3.74,2.62q.85,6.45,1.86,12.87a16.82,16.82,0,0,0,1,2.72c1.35-.37,2.61-.63,3.8-1.06,2.27-.82,4.45-1.92,6.76-2.58a2.59,2.59,0,0,0,2.18-3.14c-.25-3.5-.36-7-.65-10.49-.11-1.36,0-2.58,1.51-2.75s2.15,1.12,2.21,2.34c.17,2.89,0,5.79.2,8.67a38.4,38.4,0,0,0,1,5.23,42.82,42.82,0,0,0-.34,6.46c.3,3.12,1,6.19,1.54,9.29.16.95.39,2.21-.91,2.31a2.65,2.65,0,0,1-2.17-1.35c-.65-2.56-1-5.2-1.41-7.82C206.83,90.89,206.65,89.12,206.43,87.45Z" transform="translate(-43.5 -64.64)"/>
    <path d="M144.12,378.35c2.66-2.14,2.27-4.56,2.06-7-.28-3.21,0-3.34,3.33-3.27a8.12,8.12,0,0,0,3.7-1c3.75-2,7.45-1.63,11.2-.13a3.27,3.27,0,0,1,.33.14c1.1.62,2.22,1.41,1.58,2.8-.56,1.21-1.75.95-2.85.52-3.78-1.46-7.4-.48-10.94.88-1.78.69-1.74.78-1.45,3.62,4.85.41,10.26-1.71,14.6,3-1.23.18-2.45.45-3.68.54-2.89.23-5.81.25-8.68.58-2.26.26-2.61.9-2.35,3.17a13.67,13.67,0,0,0,.27,1.42c1.21,5.38,2.79,6.41,8.16,5.23,2.2-.49,4.39-1.34,6.7.43-.5.65-.81,1.37-1.35,1.69a14.28,14.28,0,0,1-9.73,2.1,7.27,7.27,0,0,1-5.75-3.95,17.94,17.94,0,0,1-2.08-5.75A6.17,6.17,0,0,0,144.12,378.35Z" transform="translate(-43.5 -64.64)"/>
    <path d="M218.91,317.5c4.17,3.33,9.47,3.49,13.17,6.86a3.13,3.13,0,0,1-4.13,1c-3.59-1.4-7.1-3-10.65-4.49l-2.8-1.18a19.87,19.87,0,0,1,.16,3.44c-.11.76-.56,2-1,2.06a3.23,3.23,0,0,1-2.42-.9,5.57,5.57,0,0,1-1-2.62c-.35-1.77-.6-3.57-.78-5.37-.26-2.52-1-4.62-3.44-6a3.53,3.53,0,0,1-1.62-2.85,3.58,3.58,0,0,1,2.5-2.13,22.83,22.83,0,0,1,6.07-.1,76.87,76.87,0,0,1,9.31,1.4c1.9.43,4.31.72,4.73,3.26s-1.7,3.61-3.24,4.85A35.07,35.07,0,0,1,218.91,317.5ZM212.08,309c.49,2.48.8,4,1.14,5.72,3.11-1,6.14-.91,8.05-4.43Z" transform="translate(-43.5 -64.64)"/>
    <path d="M227.66,624.41c3.51-2.77,4.3-6.17,1.85-9.93,7.06-5.42,15.5-5.83,18.51-.82-2.12,1-4.27.34-6.35.35s-4.33-.17-6.35,1v5.38c2.33,0,4.47-.11,6.6,0a35.2,35.2,0,0,1,5.69.85,2.14,2.14,0,0,1,1.76,2.73c-.38,1.35-1.59,1.19-2.72,1.08a71.55,71.55,0,0,0-8.62-.71,4,4,0,0,0-3.32,6.34c1.08,1.57,3,1.72,4.92,1.46s4.05-.5,6.09-.61a5.64,5.64,0,0,1,2.45.51c1.09.47,1.17,1.91.1,2.21-4.25,1.17-8.36,3.35-13,1.77-3.82-1.3-5.25-3.18-5.17-7.19C230.13,626.5,230.13,626.5,227.66,624.41Z" transform="translate(-43.5 -64.64)"/>
    <path d="M352.29,542c6.55-3.37,12.07-2.77,15.38,1.84-1.77,1-3.54.35-5.2.07a14.09,14.09,0,0,0-7.82.55c-2.78,1.11-2.81,1-2.33,4.72,5.18-1.31,10.22-1.19,14.89,1.76,1.12.7,1.8,1.6,1.14,3.48-1.17-.29-2.41-.49-3.57-.89a17.4,17.4,0,0,0-9.24-1c-3.05.6-3.45,1.21-2.92,4.17.6,3.42,1,3.72,4.52,3.46,1.56-.11,3.12-.41,4.69-.41s3,.27,4.45.42l.26.93c-1.31.93-2.5,2.28-4,2.69a32.65,32.65,0,0,1-8.53,1.35,5.44,5.44,0,0,1-3.7-2.44,12.19,12.19,0,0,1-1.51-5.15c-.5-4.68-.75-9.39-1.12-14.08-.08-1.08-.45-2.23.81-2.89s2,.22,2.85.94A4.27,4.27,0,0,0,352.29,542Z" transform="translate(-43.5 -64.64)"/>
    <path d="M450.92,435.65c3.73,1.6,2,4.56,2.48,7,2.48.62,4.62-.44,7.31-1.21-.52-2-1-3.78-1.49-5.58-.41-1.44-1.64-2.95.07-4.25,1-.76,2.16.26,3.42,2.9a9.75,9.75,0,0,1,.6,1.32c1,3,1.45,6.29,5.15,7.39.2.06.26.61.52,1.32l-3.88,1.8c.9,5.26,1.83,10.66,2.74,16-2.32-.32-4-2-4.72-5.14-.61-2.7-1-5.46-1.44-8.19-.17-.94-.36-1.87-.63-3.25l-7.45.74a30.22,30.22,0,0,0,.45,4.19c.75,2.92,1.7,5.78,2.48,8.68a14.9,14.9,0,0,1,.26,2.66c-3.56-.24-3.94-.37-4.6-2.93-.77-3-1.36-6.11-1.83-9.2-.25-1.68-.83-2.91-2.77-3.31a21.63,21.63,0,0,0,2.12-4.22c.38-1.49.13-3.12.31-4.68A8.36,8.36,0,0,1,450.92,435.65Z" transform="translate(-43.5 -64.64)"/>
    <path d="M569.27,437.69a6.49,6.49,0,0,1-2.2-.62c-.68-.52-1.55-1.39-1.51-2.06a2.87,2.87,0,0,1,1.61-2,16.42,16.42,0,0,1,12.34.34c2,.79,4,1.63,6,2.46,5.57,2.32,7.48,8.09,4.2,13.09-2.19,3.34-4.66,6.41-8.59,8-3.23,1.3-5.27,1.05-6.95-2a36.28,36.28,0,0,1-2.83-7.73C570.52,444.07,570,441,569.27,437.69Zm7.93,16.47c2.51.49,3.35-1.34,4.53-2.38a14.64,14.64,0,0,0,5-7.4c.77-3.13.14-4.5-2.81-5.66a52.65,52.65,0,0,0-5.82-2,46.36,46.36,0,0,0-5.32-.73A140.65,140.65,0,0,0,577.2,454.16Z" transform="translate(-43.5 -64.64)"/>
    <path d="M573.66,551c.64-3,1.2-5.62,1.8-8.47,2.2.38,4.08-.53,6.06-1.79a10.53,10.53,0,0,1,11.89,1,4.87,4.87,0,0,1,.9,1.12c.1.17,0,.46,0,.78-1,1.12-2.17.57-3.29.2a16.28,16.28,0,0,0-10,.32,11.21,11.21,0,0,0-2.36,1.66,22.69,22.69,0,0,0,2.6.72c3.35.44,6.72.73,10.05,1.28a18.4,18.4,0,0,1,4.06,1.54c1.22.54,2.78,1.25,2.12,2.82-.73,1.74-2.33.75-3.47.28a27.3,27.3,0,0,0-11.29-2.23,23,23,0,0,0-2.55.34c-.68,3.08,0,5.9.86,8.62a3.78,3.78,0,0,0,2.26,2c2.17.65,4.46.91,6.7,1.36,1.2.25,2.39.56,4.27,1-2.16,1.74-3.75,2.54-5.75,2.63-6.61.29-11.33-3.44-12.46-10-.12-.71-.26-1.43-.36-2.14C575.45,552.13,575.46,552.13,573.66,551Z" transform="translate(-43.5 -64.64)"/>
    <path d="M310.38,447.9c1.05,3.85,1.9,6.92,2.72,9.91,10.25-1.13,9.24-1.36,11.24,1.87-3.64.79-6.93,2.47-10.74,2.38-2-.05-3.25-.76-3.87-2.56-.73-2.17-1.33-4.39-2-6.57-.5-1.58-1.09-3.13-1.63-4.7-.15-.44-.49-1-.37-1.31,1.34-3.62,0-7.17-.2-10.74,0-.82,0-1.65,0-2.66,4.72-1.1,9.12-2.77,13.9-2.57,1.66.08,1.66.09,3.35,2.09-3.77,2.92-8.92.7-13,3.71.13,2.05.28,4.37.42,6.58,3.91-.32,7.34-.7,10.79-.84,2.16-.09,3.53,1.12,4.13,3.77-2.55,0-4.88-.08-7.17.17S313.27,447.32,310.38,447.9Z" transform="translate(-43.5 -64.64)"/>
    <path d="M390,506.55c1.22,2.83,4.53,4.5,5,8.28-3.73-.44-4.8-3.92-7.6-5.34-.51.2-1.16.46-1.81.7-6.58,2.48-12.31-1.07-15.08-6a6.34,6.34,0,0,1-.38-5.27c1.08-3.36,2.61-6.5,5.46-8.78a6.43,6.43,0,0,1,8.32-.32c.59.42,1.1.95,1.7,1.36,5.72,3.9,7,8.12,4.54,14.58A3.18,3.18,0,0,0,390,506.55Zm-3.35-3.76c1.15-2.41,1.61-4.68.2-6.23a21.91,21.91,0,0,0-6-4.16,2.93,2.93,0,0,0-2.59.78,23.85,23.85,0,0,0-4.19,5.35c-1.47,2.92-.76,5.54,1.34,7.19s4.79,1.67,7.71-.21c-.47-.42-.91-.81-1.36-1.18-.91-.76-1.54-1.68-.77-2.81s1.83-.9,2.88-.27C384.65,501.74,385.49,502.17,386.61,502.79Z" transform="translate(-43.5 -64.64)"/>
    <path d="M322.31,563.73c-2.83.51-4.05-.47-4.49-2.36-.75-3.29-1.38-6.61-2.05-9.92-.55-2.69-1.12-5.38-1.61-8.08a11.91,11.91,0,0,1,0-2.16c2-.74,3.29.31,4.39,1.27,3.9,3.41,7.69,6.94,11.51,10.43.86.78,1.71,1.57,3,2.75a21.51,21.51,0,0,0,.54-2.92c.06-2.77,0-5.55.06-8.32a5.56,5.56,0,0,1,.14-2.14,7.37,7.37,0,0,1,1.57-1.7c.62.62,1.64,1.17,1.78,1.89a21.54,21.54,0,0,1,.16,4.69c-.12,4.84-.33,9.66,2.62,14,.86,1.25.45,2.55-1.38,3.65a31.6,31.6,0,0,1-3.13-2.33c-4.81-4.55-9.56-9.16-14.35-13.73-.23-.21-.64-.23-1.25-.42C318.64,553.72,322,558.44,322.31,563.73Z" transform="translate(-43.5 -64.64)"/>
    <path d="M390.76,167a14.76,14.76,0,0,0,2-8.09,27.46,27.46,0,0,1-.11-4.34c.1-.75,1-1.39,1.46-2.08.48.61,1.32,1.19,1.37,1.83.4,4.94.82,9.9-1.12,14.67-1.54,3.76-3.35,4.2-6,1-1.73-2.11-2.88-4.7-4.29-7.08-.47-.8-.95-1.6-1.71-2.86a24.32,24.32,0,0,0-1.37,8.51c0,1.25.29,2.54-1.12,3.11s-2.65-.32-3.22-1.6c-2.83-6.26-5.57-12.56-8.31-18.86a6.18,6.18,0,0,1-.27-1.65c1.09-1.15,2-.64,2.49.25,1,1.78,1.83,3.66,2.67,5.53,1.12,2.5,2.18,5,3.4,7.88,1.93-1.58,1.82-3.46,2.19-5.11a17.36,17.36,0,0,0,0-2.17c.22-2.39,1.9-3.23,3.66-1.59a17.87,17.87,0,0,1,3.35,4.61c1.41,2.63,2.56,5.4,3.82,8.12Z" transform="translate(-43.5 -64.64)"/>
    <path d="M274.16,450.93c-2.59-.16-3.55.89-3.69,2.94-.13,1.81-.35,3.61-.64,5.39-.35,2.13-.86,4.22-3,5.33-1.48-.78-1.15-1.86-1-2.93.36-2,.62-4.05,1.06-6.05.36-1.68.22-3.08-1.63-3.91,3.13-4.37,2.46-9.3,2.94-14,.14-1.39-.51-3,1.42-3.64,1.45-.46,3,.43,3.94,2.47a53.39,53.39,0,0,1,1.84,5.48c.45,1.36.89,2.71,1.3,4,2.06.77,4.45-.55,6.09,2.09l-4.38,2.23c1.46,5.71,5.48,9.68,9.59,13.85a4.19,4.19,0,0,1-5.69-1,88.29,88.29,0,0,1-6-8.06A39.77,39.77,0,0,1,274.16,450.93Zm-2.1-3.84.76-.14c-.12-.63-.24-1.27-.5-2.69a11.88,11.88,0,0,0-.53,1.88A3.89,3.89,0,0,0,272.06,447.09Z" transform="translate(-43.5 -64.64)"/>
    <path d="M125.42,311.4l-5.54-1c-.84-.15-1.66-.36-2.5-.45-5.4-.58-7.45,1.46-7.09,7.48,2.91.16,5.88.34,8.85.48,2.43.11,4.51.86,5.81,3.06a5.81,5.81,0,0,1,.3,1.26c-.66.07-1.27.33-1.72.16-3.73-1.47-7.61-1.15-11.46-1-2.53.09-2.91.66-2.89,3.11,0,4.24,1.88,6.23,6.11,6.47,1.2.07,2.42-.13,3.62,0s2.49.41,4.61.78a17.61,17.61,0,0,1-2.68,1.81,13.61,13.61,0,0,1-8.88.63c-4.17-1.19-6.92-4.36-6.74-8.78a96.85,96.85,0,0,1,1.7-14c.55-2.93,3.38-4.22,5.91-4.61a30,30,0,0,1,8.6.37C123.29,307.4,124.54,308.78,125.42,311.4Z" transform="translate(-43.5 -64.64)"/>
    <path d="M519.36,444.53c4-3.76,8-6.46,10-11.13a4.54,4.54,0,0,1,3.06-2.1,3.79,3.79,0,0,1,2.95,1.41c.32.42-.35,2-1,2.7-3,3.12-6.22,6.06-9.28,9.14a39,39,0,0,0-2.83,3.68c2.67,1.23,4.92,2.33,7.21,3.32s4.69,1.89,7.22,2.9c-.1,1.93-1.46,2.24-3,1.91a59.55,59.55,0,0,1-6.25-1.83c-1.58-.53-3.11-1.23-5.18-2.06.3,1.59.5,2.67.69,3.73-2.6,1-3.17,1-4.14-1.08a59.39,59.39,0,0,1-3.17-8.46c-1.16-3.92-2.07-7.92-3-11.91-.14-.58.29-1.28.45-1.93,1,.25,2.43.2,2.82.81a20.24,20.24,0,0,1,2,5C518.54,440.34,518.82,442.12,519.36,444.53Z" transform="translate(-43.5 -64.64)"/>
    <path d="M543,494.5c-1.23-.41-2.49-.76-3.7-1.22a11,11,0,0,0-6.77,0c-1.45.37-2.4,1.14-1.65,3.13a16.6,16.6,0,0,1,13.69,2.08c.74.45,1.06,1.61,1.57,2.44l-.55.74c-1-.22-2-.42-2.94-.66-2.94-.71-5.87-1.47-8.92-.61-2.32.66-2.67,1.17-2.56,3.62.29,6.54,2.28,8.08,8.71,6.78,1.21-.24,2.45-.31,3.91-.49-1.8,5.07-6.5,7.11-10.41,4.61a12.92,12.92,0,0,1-4.27-4.69c-2.75-5.23-2.17-11-2.18-16.69a2.47,2.47,0,0,1,.75-1.54c3.56-3.58,10.77-4.07,14.76-1.05C543.66,491.84,543.72,492.14,543,494.5Z" transform="translate(-43.5 -64.64)"/>
    <path d="M631,498.29c.68,3.2,1.28,5.86,1.77,8.55,0,.29-.53.7-.85,1.1a4.55,4.55,0,0,1-3.1-3.37c-.66-2.19-1.41-4.36-2-6.56-.55-2-1-3.83-2.92-5.19-1.54-1.13-1.53-2.59-.53-3.37,1.48-1.15,3.92-1,4.84.39,4.09,6.21,10.34,9.56,16.74,12.71a5.05,5.05,0,0,0,1.21.13,29,29,0,0,0,.36-4c-.17-3.61-.52-7.22-.74-10.83a3.78,3.78,0,0,1,.34-2.07c.32-.53,1.16-1.21,1.61-1.11a4.29,4.29,0,0,1,1.81,1.46c.18.21,0,.7,0,1.06.41,6,.86,12,1.19,18a4.18,4.18,0,0,1-.73,2.92c-1.12,1.06-2.12-.19-3.15-.76-2.31-1.29-4.73-2.37-7-3.68C636.9,502,634.08,500.19,631,498.29Z" transform="translate(-43.5 -64.64)"/>
    <path d="M56.4,379.74c.84,4.19,1.59,8,2.37,11.74.29,1.38,1.12,2.93-.81,3.7-1.27.52-2.48-.52-3-2.84-1-4.73-1.73-9.5-2.6-14.25-.36-2-.78-4-1.14-6.06-.21-1.12-.3-2.33,1.21-2.51,1.23-.15,1.59.82,1.77,1.86a22.47,22.47,0,0,0,.61,2.82c.52,1.68,1.76,2.45,3.36,1.8a18,18,0,0,0,5.32-2.88c2.2-2,1.54-5-1.27-5.67-4.68-1.14-9.44-2.12-14.33-1a5.28,5.28,0,0,1-2.8.13,2.82,2.82,0,0,1-1.63-2c0-.57,1.15-1.19,1.83-1.74.15-.13.47-.08.71-.09,5.82-.12,11.65-.08,17.17,2.07a10.87,10.87,0,0,1,4.12,2.77c3,3.44,2.29,7.43-1.83,9.59A37.83,37.83,0,0,1,59,379.31,22.69,22.69,0,0,1,56.4,379.74Z" transform="translate(-43.5 -64.64)"/>
    <path d="M227.6,359.48a19.43,19.43,0,0,1,7.17,8.82c1.18,2.71,2.36,5,5.64,5.28.53.05,1,.53,1.94,1.05l-3.08,2.08c.73,1.63,1.64,3.3,2.23,5.07s1.9,3.34,1.43,5.63a5.84,5.84,0,0,1-3.77-3.28c-1-1.8-2.15-3.51-3-5.36s-2.26-2.22-4.11-2.06c-4.29.38-4.91.92-5.46,5.13a32.31,32.31,0,0,1-.51,4c-.14.54-.9,1.28-1.37,1.27a2,2,0,0,1-1.56-1.15,29.21,29.21,0,0,1-.27-4.3c-.07-1.62-.12-3.25-.21-5.49,1.5-1.32,2-3.54,1.94-6.24a29.31,29.31,0,0,1,1.23-7.48C226.06,361.45,226.87,360.65,227.6,359.48Zm5.07,13.74c-.8-2.38-1.17-4.23-3.63-5.17-.24,2-.44,3.7-.69,5.84Z" transform="translate(-43.5 -64.64)"/>
    <path d="M103.35,262.22c.32,4.65,1.11,8.86,3.76,12.85-2.55.56-3.93-.49-4.76-2.14a43,43,0,0,1-2.76-6.67c-1.33-4.3-1.93-4.66-6.76-2.9.33,1.67.66,3.41,1,5.15a32.18,32.18,0,0,1,.75,3.16c0,.49-.3,1.36-.66,1.48a2.37,2.37,0,0,1-2-.18,5.67,5.67,0,0,1-1.26-2.12c-1.16-2.6-1.1-5.74-3.5-7.81a1.1,1.1,0,0,1-.24-1c1.22-2.62.26-5.2-.07-7.8a2.89,2.89,0,0,1,.21-1.76c.32-.56,1-1.26,1.49-1.3a2.08,2.08,0,0,1,1.58,1.11,33,33,0,0,1,1.12,4.18c.23.91.45,1.81.78,3.14l5.71-1.5c-.32-1.36-.54-2.48-.85-3.58a17.33,17.33,0,0,1-.83-2.75,2.17,2.17,0,0,1,.71-1.8,2,2,0,0,1,1.87.45,14.43,14.43,0,0,1,2.48,3.92c.79,2.1,1.55,4,4,4.66.45.12.76.79,1.34,1.44Z" transform="translate(-43.5 -64.64)"/>
    <path d="M416.25,537.43a3.6,3.6,0,0,1,3.59,2.08c1.17,2.24,2.59,4.36,3.6,6.67a6,6,0,0,0,3.88,3.89,7.09,7.09,0,0,1,4.57,3.88l-4.76-1.28c-.12,3.52,3.23,5.22,3.59,8.54a10.91,10.91,0,0,1-5.15-4,18.56,18.56,0,0,1-1.59-2.83,3.85,3.85,0,0,0-3.38-2.3c-3.54-.23-4.48.35-5.18,3.86-.44,2.23-.65,4.5-.94,6.76-.18,1.35-.33,2.77-2.14,2.76-1.47,0-2.23-1.15-2-3.23.28-2.27.93-4.49,1.22-6.75.34-2.67.32-5.35,1.47-7.91a6.78,6.78,0,0,0,.49-4.24C412.81,540.57,414,538.94,416.25,537.43Zm1,11.49c2.58-1.21,2.58-1.21,1-3.61C417.92,546.48,417.66,547.4,417.24,548.92Z" transform="translate(-43.5 -64.64)"/>
    <path d="M105.68,377c4.26.69,8.93-1.89,13.63,1.26-4.48,2.17-9,2.32-13.11,3.44-.36,4,.66,5.53,4.17,6.43,1.34.34,2.69.64,4.95,1.18-1.34,1.19-1.89,2-2.63,2.27-3.55,1.16-8.35-.82-9.63-4.4-1.19-3.3-2.9-6.51-2.53-10.33.21-2.21-.58-4.51-.78-6.78-.1-1.11-.33-2.71.27-3.29,1.19-1.13,2.41,0,3.38.94.33.35.69.66,1.18,1.11a15.54,15.54,0,0,1,3.79-.71,39,39,0,0,1,6.69,1.05c1.18.28,2.31,1.17,1.77,2.67s-1.86,1-3.06.8a22.81,22.81,0,0,0-5.29-.62C104.59,372.25,104.33,372.82,105.68,377Z" transform="translate(-43.5 -64.64)"/>
    <path d="M233.92,99c-3.39.9-6.62,1.84-9.89,2.61-1.91.44-2.74-.08-3-2.09-1-6.8-1.93-13.61-2.7-20.44-.28-2.47.39-3.07,3-3.59,3.08-.62,6.17-1.14,9.26-1.69.47-.08,1.09-.27,1.41-.06a15.12,15.12,0,0,1,2,1.8c-.62.62-1.15,1.65-1.86,1.8-2.24.45-4.55.56-6.82.84-.81.1-1.61.29-2.78.52.11,2.46.21,4.78.34,7.52,1.8-.24,3.07-.43,4.36-.57,2.15-.24,4.3-.56,6.46-.62a4.51,4.51,0,0,1,2.64.85,1.37,1.37,0,0,1-.52,2.5,13.27,13.27,0,0,1-3.22.28,29.14,29.14,0,0,0-8.94,1.25,14.39,14.39,0,0,0,1.09,7.56l6.8-1C233.1,96.26,234.11,96.74,233.92,99Z" transform="translate(-43.5 -64.64)"/>
    <path d="M476.12,438.13c.37,2,.68,3.62,1,5.22,3.29,0,6.37,0,9.44,0,2.6,0,3.08.61,3.09,3.84H479.3c.49,4.28,1.85,5.79,5.46,6.83,1.61.46,3.73.1,4.59,2.24-5.12,2.59-9.64,1.5-12.39-3.38-1.33-2.37-2.39-4.58-5.37-5-.14,0-.23-.4-.49-.87,2.58-2.16,1.67-5,1.07-7.73a9.47,9.47,0,0,1-.31-3.2c.09-.65.85-1.66,1.39-1.72,3.55-.38,7.13-.66,10.71-.73a10.49,10.49,0,0,1,3.78,1c1.09.42,2,1.38,1.21,2.52a3,3,0,0,1-2.38.88c-2-.13-4-.72-6.06-.78A21.12,21.12,0,0,0,476.12,438.13Z" transform="translate(-43.5 -64.64)"/>
    <path d="M192.69,386.17c-6.06.08-10.35-3-15.27-6.67.18,1.89.24,3,.4,4.12a21.79,21.79,0,0,1,.53,2.84c0,.62-.35,1.68-.74,1.78a2.59,2.59,0,0,1-2.21-.46,7.13,7.13,0,0,1-1.35-2.89c-1.22-4.53-2.36-9.09-3.52-13.64a2.81,2.81,0,0,1-.25-1.05c.18-.89.2-2.08.78-2.55,1-.85,2.05,0,2.76.86,1.49,1.89,2.87,3.88,4.4,5.74a55.42,55.42,0,0,0,5.07,5.63c1.07,1,2.63,1.44,4.6,2.46a77.53,77.53,0,0,0-.25-10.65,16.53,16.53,0,0,1,.39-4.2c.06-.34,1-.78,1.44-.69a1.75,1.75,0,0,1,1,1.22c.77,5.25,1.47,10.5,2.17,15.76A22.12,22.12,0,0,1,192.69,386.17Z" transform="translate(-43.5 -64.64)"/>
    <path d="M68.83,333.29a25.44,25.44,0,0,0,2-3.21c2.3-5.34,3.25-10.8,1.31-16.51-.21-.62.25-1.45.39-2.19.7.33,1.63.48,2,1a7.23,7.23,0,0,1,1.55,3.2c.8,6.32.55,12.54-2.45,18.37-2.56,5-5.81,5.29-8.77.59A25.15,25.15,0,0,1,61.73,327c-1.28-5.52-2.12-11.13-3.13-16.71a2.36,2.36,0,0,1-.14-1.06c.19-.64.43-1.67.83-1.76.69-.16,1.92.05,2.19.52a12.29,12.29,0,0,1,1.41,4c.89,5.11,1.57,10.25,2.51,15.35C65.78,329.41,66.18,331.64,68.83,333.29Z" transform="translate(-43.5 -64.64)"/>
    <path d="M724,496.07c-2.64.26-5.28.6-7.93.75-6.27.35-12.55.6-18.83.92-2.4.12-4.81.23-7.2.54-1.62.21-2.24-.59-2.52-1.9a2.13,2.13,0,0,1,1.66-2.77,9.12,9.12,0,0,1,2.16-.08c4.59,0,9.2.2,13.78,0,7.36-.38,14.7-1.1,22-1.59,2.16-.14,4.34,0,6.51.05a3.64,3.64,0,0,1,1.76.32c.65.42,1.68,1.3,1.56,1.64-.26.74-1.09,1.73-1.78,1.8-2.87.32-5.78.35-8.67.47-.85,0-1.69,0-2.54,0Z" transform="translate(-43.5 -64.64)"/>
    <path d="M175.24,260.4l-2.92,1.43c.65,3.12,2.68,5.75,2.8,9.25a5.58,5.58,0,0,1-4.26-3.21,45.44,45.44,0,0,0-2.73-5.11,5.69,5.69,0,0,0-2.46-1.88c-1.47-.62-2.6-.09-3,1.59s-.73,3.06-1,4.61c-.33,1.91-1.29,2.79-3.48,2.25a5.72,5.72,0,0,1-.39-1.92c.54-3.82,1.2-7.63,1.79-11.45.38-2.49.76-5,1-7.5.15-1.5.62-2.6,2.27-2.75s2.41.7,3,2.12c1,2.58,2.14,5.1,3.18,7.67a4,4,0,0,0,3,2.32C174.21,258.43,174.19,258.5,175.24,260.4Z" transform="translate(-43.5 -64.64)"/>
    <path d="M395.61,455.59a5.45,5.45,0,0,0,4.14-3.3,21.59,21.59,0,0,0,1.86-13.05,37.11,37.11,0,0,1-.36-5.77,7.64,7.64,0,0,1,.84-2.32c.55.4,1,.57,1.08.81.8,4.76,2,9.51,2.16,14.28A16.19,16.19,0,0,1,400,458.51c-2.22,2.11-4.09,2.11-6.27-.12a9.34,9.34,0,0,1-2.26-3.22,44.63,44.63,0,0,1-2.35-19.62,3.51,3.51,0,0,1,.72-2,3.22,3.22,0,0,1,2.13-.92c.45,0,1.19.91,1.25,1.46a15.88,15.88,0,0,1-.14,4.3c-1,5.15-.14,10.11,1.33,15A12.08,12.08,0,0,0,395.61,455.59Z" transform="translate(-43.5 -64.64)"/>
    <path d="M131.32,639.94a30.21,30.21,0,0,1-4.18-1c-4.54-1.72-6.68-5.68-5.27-10.45a33.57,33.57,0,0,1,3.75-8.17c2.18-3.49,5.29-3.48,7.81-.18a41.25,41.25,0,0,1,4.4,6.58,16,16,0,0,1,1.48,5.88c.32,4.84-1.33,6.59-6.13,7-.6.05-1.2,0-1.81,0ZM130,622.21c-3.12,2.54-4.48,5.38-4.44,8.52,0,3.89,2.27,5.7,6.14,5,2.65-.49,3.66-2,3.39-5-.31-3.41-1.07-4.23-3.93-4.36C130.76,625.08,130.42,623.86,130,622.21Z" transform="translate(-43.5 -64.64)"/>
    <path d="M300.47,435.73c0,7.38,0,14.47,0,21.56a18.89,18.89,0,0,1-.31,3.6c-.28,1.37-.4,2.84-2.3,3.26s-2.77-.48-3.63-1.71a46.79,46.79,0,0,1-2.48-4c-3.45-6.29-4.89-13.32-7.21-20a2.46,2.46,0,0,1,.81-2.09,1.55,1.55,0,0,1,2.42.7,30.13,30.13,0,0,1,1.38,3.72c1.34,4.26,2.58,8.55,4,12.79a30.55,30.55,0,0,0,2,4.1l.85-.1c.2-1.57.51-3.13.58-4.7.17-4,.3-8,.29-11.95a6.72,6.72,0,0,1,1.92-4.53C299.09,436,299.77,436,300.47,435.73Z" transform="translate(-43.5 -64.64)"/>
    <path d="M423.42,168.68c-3.06,1-4.36.56-5.33-1.7a31,31,0,0,1-1.38-4.86c-.29-1.15-.48-2.33-.78-3.88l-6.24.3c.52,3.07.93,5.64,1.41,8.2.17.95.58,1.85.72,2.8s.64,2.31-.83,2.77-2.24-.32-2.51-1.78c-.13-.7-.55-1.35-.7-2.05-1.21-5.65-2.43-11.3-3.5-17a2.71,2.71,0,0,1,1-2.34c1.12-.56,2,.22,2.45,1.41.53,1.47,1.08,2.92,1.75,4.76l5.95-1a20.44,20.44,0,0,1-.67-3.84,8.27,8.27,0,0,1,.9-2.48c.83.33,2.23.48,2.4,1,.93,2.92,3,5.36,2.28,9A11.3,11.3,0,0,0,423.42,168.68Z" transform="translate(-43.5 -64.64)"/>
    <path d="M264,615.38c-4.71-1.16-8.83,1.89-13,.73l-.19-.89a7.64,7.64,0,0,1,1.88-1.34c4-1.34,7.94-3.17,12.05-3.7s8.62.11,12.92.47a5.23,5.23,0,0,1,3.08,1.64,3,3,0,0,1,.2,2.59c-.13.35-1.61.61-2.19.33-2.61-1.27-5.37-1.32-8.15-1.3a10.69,10.69,0,0,0-1.92.43c-.71,5.69-1.11,11.28.31,16.88a16,16,0,0,1,.6,3.19,1.78,1.78,0,0,1-.85,1.39,1.68,1.68,0,0,1-1.58-.35,11.63,11.63,0,0,1-2-3.35A31.22,31.22,0,0,1,264,620.64C264.12,619,264,617.32,264,615.38Z" transform="translate(-43.5 -64.64)"/>
    <path d="M603.93,502c.63-3.33,1.17-7.23,3.87-10.48a3.14,3.14,0,0,1,4.11-1.05,8.1,8.1,0,0,1,1.9,1,20.66,20.66,0,0,1,7.29,10.93,9.07,9.07,0,0,1-3.74,9.49,6.62,6.62,0,0,1-5.87.8C607.42,511.46,604,506.85,603.93,502Zm8.38-8.14c-4,2.91-5.69,8.86-3.66,12.68a3.92,3.92,0,0,0,2.11,1.73,5.35,5.35,0,0,0,6.58-5.95A16.05,16.05,0,0,0,612.31,493.9Z" transform="translate(-43.5 -64.64)"/>
    <path d="M302.05,366.87l2.4-1.9c.56.66,1.12,1.23,1.57,1.88,2,2.86,3.73,5.9,5.94,8.56a14.66,14.66,0,0,0,4.91,3.53c2.8,1.35,4.13.33,3.73-2.82a44.61,44.61,0,0,0-1.55-5.93,33.39,33.39,0,0,1-1.06-3.45c-.09-.53.4-1.16.92-2.53,3.07,6.65,7.92,12,4.27,19.47-5.21,0-9.27-2.58-13.95-5.55.34,2.31.55,3.92.83,5.51.23,1.29.27,2.58-1.31,2.86s-2.3-1-2.59-2.38c-.46-2.11-.71-4.26-1.22-6.36C304.11,374.31,303.13,370.9,302.05,366.87Z" transform="translate(-43.5 -64.64)"/>
    <path d="M519.07,508a34.81,34.81,0,0,1-2.07,5.83,5.59,5.59,0,0,1-5.82,2.88c-2.68-.29-5.26-1-6.74-3.56a2.93,2.93,0,0,1-.33-1.72c0-.36.58-1,.87-.94a1.92,1.92,0,0,1,1.42.74c1.17,2.13,3.06,1.57,4.79,1.33,2-.28,2.66-1.75,3.06-3.56a11.7,11.7,0,0,0-.28-6.76c-.76-2-1.44-4.1-2.31-6.08-1.09-2.49-1.47-2.61-4.17-2.11-1.54.28-3.07.66-4.62.83a4.93,4.93,0,0,1-2.78-.3,3.18,3.18,0,0,1-1.35-2.25c0-.52.93-1.4,1.6-1.59,3-.88,6-1.62,9.05-2.26a2.22,2.22,0,0,1,1.87.72C515.18,494.68,518.16,500.54,519.07,508Z" transform="translate(-43.5 -64.64)"/>
    <path d="M349.44,429.79l3.26-.27c2,4.34,3.27,9,6.71,12.48,1.73-1.26,2.1-3,2.49-4.76a26.92,26.92,0,0,1,1.59-5.17,2.59,2.59,0,0,1,3.73-1.51c-.9,4.25-1.65,8.35-2.65,12.38-.52,2.08-1.2,4.28-4.1,4.92,2.24,4.89,1.32,9.77,1,15.05-2.15-1.07-2.37-2.88-2.77-4.53-.82-3.4-1.58-6.81-2.35-10.22a4.61,4.61,0,0,1-.33-2.1c.5-1.53-.39-2.47-1-3.65-1.8-3.4-3.46-6.88-5.13-10.36A11,11,0,0,1,349.44,429.79Z" transform="translate(-43.5 -64.64)"/>
    <path d="M489.92,505.63c-.32-5-.6-9.4-.89-13.84,1.59-.59,2.74-.36,3,1.15.85,5.34,2.25,10.63,1.57,16.12a7.58,7.58,0,0,1-.6,1.46,33.77,33.77,0,0,1-14.85-7.82l-.68.57c.61,2,1.17,4.05,1.84,6.05.33,1,.79,2.07-.45,2.42a2.89,2.89,0,0,1-2.47-.82c-2-2.55-2.53-5.69-3-8.8a72.08,72.08,0,0,1-.59-7.19c0-1.15-.16-2.62,1.44-2.92s2.3.82,2.77,2.21a16.86,16.86,0,0,0,10.37,10.83A25.32,25.32,0,0,0,489.92,505.63Z" transform="translate(-43.5 -64.64)"/>
    <path d="M142.73,619.05c3.34-1.53,6.24-3.42,9.41-4.14a51.77,51.77,0,0,1,11.49-.83c3,0,4,1.22,4.71,4.69a21,21,0,0,0-11.18-.59c0,.9,0,1.71,0,2.51.16,2.89.24,5.79.57,8.66s.83,5.71,1.43,8.53c.26,1.18,1.05,2.35-.56,3.06a2.45,2.45,0,0,1-3.33-1.83c-.72-3-1.25-6.08-1.75-9.15-.54-3.29-1-6.6-1.41-9.78C149,619,145.78,622.57,142.73,619.05Z" transform="translate(-43.5 -64.64)"/>
    <path d="M73.93,255.18c-.57,7.77,2.42,14.68,3.79,21.76-3.52,1.45-3.69,1.28-4.29-1.76-1.25-6.26-2.65-12.48-4.05-19-3.85-.87-7.23,1.85-11.1,2-1.21-1.9.09-2.66,1.47-3.17,3.17-1.17,6.38-2.24,9.59-3.32a21.34,21.34,0,0,1,11.46-.22c2,.42,3.93,1.11,5.12,3.13-.89,2.12-2.45,1.67-3.94,1.13A12.1,12.1,0,0,0,73.93,255.18Z" transform="translate(-43.5 -64.64)"/>
    <path d="M165.19,329.24c2.94-.83,5.57-1.21,7.86-2.31,3.07-1.48,3-3.15,0-4.84-2-1.13-4.18-1.92-6.14-3.09-2.46-1.48-4.35-3.5-4.28-6.64.07-3.31,2.34-5.95,5.92-6.86a9.35,9.35,0,0,1,7.62,1.25c.6.39.67,1.58,1,2.41a8.25,8.25,0,0,1-2.5.73c-1.17-.05-2.31-.71-3.47-.73a4.28,4.28,0,0,0-4.09,3c-.56,2,.45,3.28,2,4.21s3.07,1.44,4.46,2.39a41.79,41.79,0,0,1,5.62,4.45,2.87,2.87,0,0,1,.12,4.25c-3,3.18-6.57,4.94-11,4.29C166.94,331.55,165.11,331.27,165.19,329.24Z" transform="translate(-43.5 -64.64)"/>
    <path d="M202.66,262a18.3,18.3,0,0,1,.72,3.13,7.1,7.1,0,0,1-.59,2.17,16.31,16.31,0,0,1-2.53-.84c-.34-.18-.54-.8-.64-1.26-1.14-5.41-2.36-10.81-3.34-16.25-.4-2.23.38-3.13,2.48-2.9,3.21.37,6.39,1.09,9.58,1.73a5.39,5.39,0,0,1,1.61.8c4.71,2.82,5,6.88.35,9.92C208.14,259.89,205.54,260.67,202.66,262Zm-.95-4c3.18-.07,4.88-1.78,6.37-3.64.81-1,.95-2.42-.59-3-2.08-.76-4.24-1.69-6.84-.43C201,253.21,201.34,255.51,201.71,257.92Z" transform="translate(-43.5 -64.64)"/>
    <path d="M258,544.9c-2.52,6.5-1,12.89-.93,19.23,0,1.15.86,2.41-.51,3.29-1,.64-2.89-.14-3.92-1.81q-4.2-6.76-8.22-13.64c-1.26-2.15-2.07-4.52-4.35-6-1-.65-1.44-2.09-2.13-3.16,1.38-1.62,2.78-1.31,3.77-.44a20.75,20.75,0,0,1,4,4.52c1.34,2.14,2.19,4.57,3.37,6.81.72,1.36,1.67,2.59,2.71,4.16,1.55-1.9,1.12-3.71,1.24-5.44a25.47,25.47,0,0,1,.85-6C254.46,544.47,255.44,544.26,258,544.9Z" transform="translate(-43.5 -64.64)"/>
    <path d="M281.58,544.39a7.93,7.93,0,0,1,.77,1.94c.31,2.51.45,5,.76,7.56.53,4.23.85,8.43-1,12.46-1.22,2.62-2,2.95-4.42,1.45a21.36,21.36,0,0,1-8.17-9c-2.05-4.2-2.2-8.82-3.48-13.16,3.26-1.09,4.13-.76,4.83,1.91.53,2,.81,4,1.15,6,.67,4,2,7.66,5.62,10.23a4.85,4.85,0,0,0,2.05-4.47,74.45,74.45,0,0,0-.52-8.31A7.24,7.24,0,0,1,281.58,544.39Z" transform="translate(-43.5 -64.64)"/>
    <path d="M185.18,268.57c-2.89.65-3.37.48-4.18-1.94-1.11-3.32-2.14-6.66-3-10.05-.45-1.7-.71-3.21-2.85-3.66-1.14-.24-2.46-1.14-2-2.54a4.15,4.15,0,0,1,2.24-2.45c4.82-1.61,9.58-1.48,13.71,1.88,3.13,2.54,2.92,4.32-.49,6.31a16.74,16.74,0,0,1-3,1.33c-2.82,1-3,1.16-2.27,4.22C183.87,264,184.56,266.27,185.18,268.57Zm-2.71-14.08,3.55-1.58a3.9,3.9,0,0,0-5-1.16Z" transform="translate(-43.5 -64.64)"/>
    <path d="M434.83,161.82c-.95,2.63-1.86,5.18-3,8.41a12.34,12.34,0,0,1-2-2.24,3.1,3.1,0,0,1,.1-1.77c.5-2.25,1.14-4.51-1.67-6.23,5-2.69,3.67-7.32,4.49-11.16,2.77-.59,4.18.87,5.32,2.89s2.16,3.78,3.34,5.6a4,4,0,0,0,1.78,1.7c1.78.59,2.27,1.52,2.33,3.45,0,1.33,1.47,2.64,2.32,3.93s2.22,2.26,1.69,4.4a16.7,16.7,0,0,1-7.18-6.42C440.27,161.33,437.8,161.33,434.83,161.82Z" transform="translate(-43.5 -64.64)"/>
    <path d="M481.86,537.15c3.3.22,4.22,1,4.43,3.83.21,3,.1,6,.43,9,.37,3.32,1.08,6.6,1.66,10,5.1-.08,9.18-3.81,14.81-2.65-4.62,4.16-9.16,6.89-14.57,7.92a3.56,3.56,0,0,1-4.38-3.21q-1.29-11.48-2.52-23A12.76,12.76,0,0,1,481.86,537.15Z" transform="translate(-43.5 -64.64)"/>
    <path d="M220.7,635.76c-3.08,1.27-4.46,1.13-5.68-1a16.7,16.7,0,0,1-1.86-5.38,8.81,8.81,0,0,0-2.07-4.49c-2-2.27-3.82-4.65-5.7-7-.7-.88-1.39-2.08-.28-2.81a3,3,0,0,1,2.82.47,36.49,36.49,0,0,1,3.39,4.19c1,1.27,2.12,2.49,3.27,3.83,3.1-2.43,3.86-5.65,5.07-8.6.36-.9.56-1.85.9-2.75a2.49,2.49,0,0,1,3.16-1.72c1.53.48,1.24,1.88.8,3.06-1.58,4.17-2.92,8.46-4.88,12.45C217.92,629.57,217.54,632.61,220.7,635.76Z" transform="translate(-43.5 -64.64)"/>
    <path d="M349.94,511.16c3.08-.77,6.47-.67,9.36-3.09-.7-.8-1.11-1.58-1.74-1.93-2-1.09-4.13-2-6.19-3a19.33,19.33,0,0,1-4.16-2.18c-4-3.42-3.93-5.45-.75-8.68,2.18-2.23,4.69-3.94,7.83-4.14a6.36,6.36,0,0,1,3.89,1.29c.58.42.69,2,.41,2.86-.14.45-1.81.92-2.4.62-2.23-1.13-4-.24-5.78.86-3.27,2-3.26,4,.11,5.83,2.35,1.24,4.94,2.05,7.21,3.4a16.91,16.91,0,0,1,4.59,3.95c1.51,1.93,1.17,3.68-.8,5a12.35,12.35,0,0,1-9.69,1.88c-.85-.17-1.53-1.19-2.28-1.81Z" transform="translate(-43.5 -64.64)"/>
    <path d="M257.14,259.63c-1.09-.43-2.78-.6-3-1.28-.76-2.18,1.74-2.49,2.71-3.68a5.07,5.07,0,0,0,.25-.71c.22-1,.09-2.42.69-2.84,1.27-.9,2.37.27,2.88,1.32.84,1.74,2.21,2,3.86,2.06a51.61,51.61,0,0,1,5.41.54,6,6,0,0,1,2.69.92,2.74,2.74,0,0,1,.77,2.12c0,.33-1.13.85-1.72.82-1.8-.1-3.59-.5-5.39-.65-1.4-.11-2.82,0-4.69,0a44.64,44.64,0,0,0,.69,5.38c.61,2.41,1.57,3.11,4.12,3.28,1.56.1,3.14,0,4.71.06,1.14,0,2.28.16,3.56.25-.06,2.2-1.1,3.18-2.67,3.23a43.9,43.9,0,0,1-8.27-.3,6.58,6.58,0,0,1-5.24-5C257.94,263.28,257.56,261.38,257.14,259.63Z" transform="translate(-43.5 -64.64)"/>
    <path d="M207.92,368c-.44,7.21,2.44,13.47,3.92,20.13-2.86.53-3.5-1.43-4.32-2.88-2.26-4-3.11-8.35-3.69-12.8-.16-1.17-.34-2.34-.48-3.33-3.53-1.5-6.87,2.56-10.46-.39a8.32,8.32,0,0,1,1.81-1.42,45.08,45.08,0,0,1,20.67-2.7c2.14.22,4,.82,5.17,2.83a7.93,7.93,0,0,1,.33,2C216.44,368.39,212.36,366.49,207.92,368Z" transform="translate(-43.5 -64.64)"/>
    <path d="M374.06,436.16c1.54-.26,2.65-.16,3.74,1a13.08,13.08,0,0,0,3.59,2.31,10.94,10.94,0,0,1,4.35,14.4,4.33,4.33,0,0,1-3.1,2.19c-7.51,1.79-12.25-4.29-11.89-11.07A16.27,16.27,0,0,1,374.06,436.16Zm2.47,4.5c-2.61,3.57-2.58,8.17-.06,10.67,1.78,1.77,4.2,1.59,5.45-.56a6.77,6.77,0,0,0,.84-3C382.86,444.34,380.89,442.13,376.53,440.66Z" transform="translate(-43.5 -64.64)"/>
    <path d="M658.1,543.46c.51,3,3.54,6,.67,9.85-4.39-2.62-3.12-8.39-7.42-11.33a24,24,0,0,1,4-2.49c2.62-.92,4-3,5.4-5.12.93-1.44.51-2.6-1.13-3.08-2.58-.76-5.19-1.08-7.71.44-.77.47-2,1.07-2.58.79a4.29,4.29,0,0,1-2.21-2.48c-.14-.6,1.06-2.09,1.82-2.21a40.4,40.4,0,0,1,7.85-.47,15.36,15.36,0,0,1,4.52,1.23c3.85,1.44,5.09,5.15,2.65,8.44A83.34,83.34,0,0,1,658.1,543.46Z" transform="translate(-43.5 -64.64)"/>
    <path d="M250.81,82.23c1.36-3,2.21-5.26,3.36-7.34s1.77-2.19,4.74-1.2c-1.23,3.23-2.28,6.54-3.76,9.64a7.35,7.35,0,0,0-.59,5.18c.81,3.51,1.32,7.08.34,10.82a2.91,2.91,0,0,1-3.06-2.58c-.23-1.06-.48-2.12-.61-3.19-.71-6.23-4.48-10.77-8.31-15.29-.78-.93-1.58-1.83-2.33-2.77s-.93-2,.11-2.49a2.78,2.78,0,0,1,2.54.13,48.3,48.3,0,0,1,3.65,4.47C248,79,249.18,80.32,250.81,82.23Z" transform="translate(-43.5 -64.64)"/>
    <path d="M548.49,542.76c-3.7-.43-6.69-2.58-10.44-1.8,0,7.21,1.86,14.18,2.67,21.34-2.59.67-3.38-.81-4-2.43a38.52,38.52,0,0,1-2.59-12.33c0-1.89-.35-3.78-.53-5.71-2.85-.55-5.37,1.53-8.06.24,3.17-3.45,10.56-5.59,15.43-4.59,1.41.29,2.78.82,4.21,1C547.41,538.86,548.21,540.22,548.49,542.76Z" transform="translate(-43.5 -64.64)"/>
    <path d="M86.78,332.8a29.7,29.7,0,0,0,3.12-.42A4.37,4.37,0,0,0,93.27,329a3.85,3.85,0,0,0-1.45-4.2c-1.17-.86-2.44-1.59-3.57-2.5-2.48-2-4.78-4.14-4.39-7.81.49-4.51,4.93-8,8.9-6.83.89.26,2.07,1.17,2.2,1.94.23,1.28-1,1.72-2.21,1.76-2.14.06-3.8.85-4.4,3.05s.52,4,2.2,5.36a66.82,66.82,0,0,1,5.51,4.69,5.83,5.83,0,0,1,1.12,7.29c-1.71,3.12-4.72,4.78-7.72,4.27C87.77,335.69,87.56,335.46,86.78,332.8Z" transform="translate(-43.5 -64.64)"/>
    <path d="M126.1,372.45c.82,2.1,2.72,2.74,4.42,3.56a19.37,19.37,0,0,1,7.41,6.19c1.59,2.21,1.34,4-.72,5.69a7.34,7.34,0,0,1-7.79,1.25c-.64-.26-1-1.16-1.53-1.77.67-.36,1.33-1,2-1a4.58,4.58,0,0,0,4.55-2.47c-.77-2.74-3.22-3.74-5.3-5.09-1.71-1.12-3.59-2-5.21-3.23-3.08-2.35-3.13-4.52-.24-7.14,2-1.79,4.18-3.38,7-3.39a10.63,10.63,0,0,1,3.84.79c1,.4,1.89,1.24,1.36,2.56s-1.44,1-2.45.77c-2.6-.62-4.73.37-6.59,2.09A5.09,5.09,0,0,0,126.1,372.45Z" transform="translate(-43.5 -64.64)"/>
    <path d="M615.18,560.17a41.46,41.46,0,0,0,5.65-1.45,3.47,3.47,0,0,0,2-2.24c0-.75-1-1.77-1.81-2.33-2.18-1.51-4.58-2.71-6.72-4.28a24.65,24.65,0,0,1-4.17-4,3.84,3.84,0,0,1,1-6.11,15.42,15.42,0,0,1,4.95-2.12,7.07,7.07,0,0,1,4,1c.47.24.66,1.49.55,2.22-.05.34-1.15.78-1.73.73-2.22-.21-4.05.25-5.37,2.23.68,2.52,2.73,3.67,4.61,4.94,2.2,1.49,4.51,2.82,6.68,4.35a11.77,11.77,0,0,1,2.51,2.57,3.08,3.08,0,0,1,0,3.74c-1.68,2.61-7.46,4.22-10.19,2.76A9.83,9.83,0,0,1,615.18,560.17Z" transform="translate(-43.5 -64.64)"/>
    <path d="M501.27,145.18c-2.94-2-6-2-8.95-1.94-1.79,0-3.57.57-5.37.64-.82,0-2.14-.3-2.36-.83a3.44,3.44,0,0,1,.64-2.56A2.69,2.69,0,0,1,487,139.4c5.84-.53,11.63-.58,16.7,3,2.88,2,3,3.8.3,6a21.35,21.35,0,0,1-4.93,3c-2.4,1.05-4.94,1.78-3.43,5.51-2.25,0-4.06-.18-4.77-2.25-.61-1.77,1-4.09,3.1-5C496.49,148.66,499.28,148,501.27,145.18Z" transform="translate(-43.5 -64.64)"/>
    <path d="M404.13,488.81c3,.1,4.07,1.25,4.23,3.36.27,3.48.48,7,.73,10.43.09,1.16.22,2.32.38,4,3.21-.64,6-1.13,8.8-1.77a11.69,11.69,0,0,1,8.67,1.24c-2,.74-3.49,1.35-5,1.79-3.8,1.13-7.59,2.33-11.46,3.18-1.51.33-3.22-.23-5.2-.41,0-4,.14-7.58,0-11.14S404.54,492.61,404.13,488.81Z" transform="translate(-43.5 -64.64)"/>
    <path d="M252,367.39c.44,5.58,3.18,10.54,3.25,16.29a4.46,4.46,0,0,1-4.16-3.42c-1-3-1.83-6-2.73-9-.38-1.26-.75-2.52-1.24-4.15l-6.39,1.11c-1-.83-1-1.78,0-2.37,2.16-1.27,4.43-2.38,6.69-3.47a1.55,1.55,0,0,1,1.38.09c1.79,1.4,3.93.86,5.91,1.2a54.25,54.25,0,0,1,6.67,1.56c1.08.32,2.64.77,2.18,2.36s-1.91,1-3.07.76c-2-.43-4-.93-6-1.25A9.68,9.68,0,0,0,252,367.39Z" transform="translate(-43.5 -64.64)"/>
    <path d="M288.85,383.19A9.32,9.32,0,0,1,280.73,371c.67-1.93,1.33-3.89,3.2-5.09s3.36-1,4.88.94a19.94,19.94,0,0,0,2.78,2.73,8.7,8.7,0,0,1,2.82,10C293.37,382.28,291.74,383.34,288.85,383.19Zm-4.77-9.09a24.36,24.36,0,0,0,.85,3.4c.83,2,2.79,2.55,4.4,1.17a6.41,6.41,0,0,0,1.78-2.65c.69-2-.85-3.19-2.13-4.21-.74-.59-2.34-1.12-2.84-.75A10.36,10.36,0,0,0,284.08,374.1Z" transform="translate(-43.5 -64.64)"/>
    <path d="M254.77,264.85c-.66,2.33-2,3.17-3.87,3.2-3.85.07-7.71.06-11.56.06-1.92,0-2.3-1.18-2.39-2.86-.33-6.48-.75-12.95-1.18-19.42-.07-1-.28-2.2,1-2.29a2.93,2.93,0,0,1,2.23,1.31,9.92,9.92,0,0,1,1.06,3.76c.34,3.6.5,7.21.73,10.81,0,.24,0,.49,0,.73.34,4.28.94,4.73,5.12,4.31a54.26,54.26,0,0,1,6.12-.17A15.5,15.5,0,0,1,254.77,264.85Z" transform="translate(-43.5 -64.64)"/>
    <path d="M131.86,266.07l-4.49-2.22a40.45,40.45,0,0,1-4.5-2.29,6.26,6.26,0,0,1-2.19-8.54c1.65-3.23,5.74-5.23,8.76-4.28,1.28.41,1.47.8,1.43,3.22a8.8,8.8,0,0,0-2.74.48,10,10,0,0,0-3.34,2.55c-1.43,1.91-1,3.45,1.27,4.71,1.46.83,3,1.44,4.58,2.14.87.4,1.77.75,2.64,1.17,1.69.81,3.22,1.88,3.3,3.94s-1.45,3.32-3,4.16a17.41,17.41,0,0,1-4.77,1.48,2,2,0,0,1-1.65-1c-.15-.4.41-1.37.9-1.64C129.62,269.12,131.26,268.4,131.86,266.07Z" transform="translate(-43.5 -64.64)"/>
    <path d="M583.07,513a9.27,9.27,0,0,1-6-9.14c-.47-2.61-.84-5.24-1.28-7.86s-.77-2.79-3.26-2.7c-1.08,0-2.63,1.08-3.13-.64s1.24-1.86,2.22-2.4c4.27-2.38,8.88-1.79,13.42-1.24a2.22,2.22,0,0,1,2,3l-7.85.55C580.47,499.29,581.69,505.7,583.07,513Z" transform="translate(-43.5 -64.64)"/>
    <path d="M459.86,152c1.55,5.34.14,11,2.54,16.24.27.61,0,1.49-.1,2.24-.88-.09-2.08.14-2.55-.34a6.45,6.45,0,0,1-1.57-3.15c-.61-3.2-1-6.43-1.46-9.65-.22-1.65-.3-3.31-.42-4.81-2.69-1.27-5.22,1.29-7.79-.51.32-.49.5-1.1.8-1.17,6.55-1.6,13.05-3.65,19.93-2.4,1.38.25,3.36.29,3.12,2.24-.27,2.19-2.17,1.28-3.49,1.08C466,151.35,463.15,151,459.86,152Z" transform="translate(-43.5 -64.64)"/>
    <path d="M448.15,457.42c-1.72,5.27-3,6-7.55,4.25-4.31-1.65-7.9-4.16-9.89-8.55-1.1-2.43-1.63-5-.38-7.36A98.72,98.72,0,0,1,436,437a2.21,2.21,0,0,1,3.17-.8,4,4,0,0,1,1.32,2.36,2.29,2.29,0,0,1-1.77,2.8c-3.89.82-4.69,4-5.16,7-.5,3.25,1.06,5.87,3.76,7.74,2.54,1.77,5.15,3.19,8.39,1.63A8.74,8.74,0,0,1,448.15,457.42Z" transform="translate(-43.5 -64.64)"/>
    <path d="M330,384.07c.84-4.19,5.74-4.51,6.67-8.57l-2.85-1.77a37.55,37.55,0,0,1-4.57-2.89c-3.54-3-3.13-7.79.74-10.4,2.82-1.89,5.91-1.9,9.07-1.33.35.06.86.21.95.45.33.82.86,1.8.65,2.53-.29,1-1.19,1.08-2.34.64a8,8,0,0,0-4.1-.49,4.62,4.62,0,0,0-3.82,3.47c-.51,2.06,1.08,3.08,2.42,4.06a24.91,24.91,0,0,0,3.17,1.73,21.62,21.62,0,0,1,2.25,1.15c3.49,2.4,3.68,4.24.77,7.3C336.59,382.43,333.88,384.16,330,384.07Z" transform="translate(-43.5 -64.64)"/>
    <path d="M571.4,504a39.55,39.55,0,0,1-4.6,3.21c-5,2.54-12.08.12-14.45-5a7.83,7.83,0,0,1-.51-4.51,19,19,0,0,1,6.45-10.61,5,5,0,0,1,1.52-1,2.33,2.33,0,0,1,3,1.26c.64,1.15-.36,1.63-1,2.34-1.86,2-4,3.9-5.33,6.22-2.55,4.43-.28,8.34,4.8,8.54a29.2,29.2,0,0,0,5.67-.79c1.37-.22,2.72-.5,4.09-.75Z" transform="translate(-43.5 -64.64)"/>
    <path d="M513.07,450.91c-1.53,3.08-3.54,4.84-6.32,5.48-4.34,1-7.89-.89-10.63-3.95s-2.78-6.65-1.1-10.17a47.94,47.94,0,0,1,4.38-7.41,9.83,9.83,0,0,1,3.45-2.47c.95-.51,2.16-.83,2.82.5s.08,2.18-1.29,2.78c-3.34,1.47-5.07,4.37-6.17,7.64-2.12,6.34,1.67,10.6,8.18,9.25C508.47,452.13,510.51,451.55,513.07,450.91Z" transform="translate(-43.5 -64.64)"/>
    <path d="M312.42,561.58c-2.31,2.62-5.06,2.84-7.52,3.57a34.32,34.32,0,0,1-6,1.15,3.5,3.5,0,0,1-4.11-2.75,80.15,80.15,0,0,1-1.65-9.24c-.29-2.36.23-4.81-1-7.08-.26-.49,0-1.8.27-1.91a3.13,3.13,0,0,1,2.29.14c1.57.79,1.93,2.28,2,4,.07,2.77.26,5.54.5,8.3.31,3.7.77,4,4.56,3.54,2.5-.3,5-.54,7.53-.61A12.41,12.41,0,0,1,312.42,561.58Z" transform="translate(-43.5 -64.64)"/>
    <path d="M472.3,558a13.84,13.84,0,0,1-.27,1.86c-.33,1.12-1,2.18-2.26,1.77a2.92,2.92,0,0,1-1.54-2c-.7-4.27-1.12-8.58-1.85-12.85a27.81,27.81,0,0,0-1.76-4.63,5.55,5.55,0,0,1-.67-2.27c.19-1.82,1.66-2.6,3.08-1.47a7.33,7.33,0,0,1,2.52,3.7c.94,4.1,1.5,8.28,2.2,12.42C472,555.71,472.13,556.9,472.3,558Z" transform="translate(-43.5 -64.64)"/>
    <path d="M507.35,540.26c3.16-.92,3.81-.82,4.53,1.35,1.91,5.78,3,11.7,1.88,17.81a5.92,5.92,0,0,1-.68,1.36c-2.11-.21-2.65-1.63-2.67-3.25C510.36,551.69,509,546.08,507.35,540.26Z" transform="translate(-43.5 -64.64)"/>
    <path d="M272.16,386.47c-1.91-.18-2-1.51-2.2-2.64q-1.62-7.75-3.14-15.54a4,4,0,0,1,.07-2.1,1.53,1.53,0,0,1,2.8-.47,13.17,13.17,0,0,1,1.74,4.27c.65,3.06,1.05,6.17,1.54,9.26A11.61,11.61,0,0,1,272.16,386.47Z" transform="translate(-43.5 -64.64)"/>
    <path d="M459.06,493.14c.1-.18.47-1.43.87-1.43a2.89,2.89,0,0,1,2.31,1.08,16.06,16.06,0,0,1,1.35,4.45c.85,4.73,1.6,9.48,2.33,14.24.08.52-.11,1.52-.32,1.56a2.36,2.36,0,0,1-1.9-.29,6.69,6.69,0,0,1-1.87-3C460.82,504.46,460,499.1,459.06,493.14Z" transform="translate(-43.5 -64.64)"/>
    <path d="M115.23,270.9c-2.66.89-3.58-.38-4.08-2.18-1.11-4.08-2.18-8.17-3.25-12.27a18,18,0,0,1-.76-3.52c0-.7.32-1.86.79-2a2.58,2.58,0,0,1,2.17.66,5.32,5.32,0,0,1,1.42,2.49C112.8,259.56,114,265.11,115.23,270.9Z" transform="translate(-43.5 -64.64)"/>
    <path d="M562.14,562.25c-.75-1.17-1.53-1.86-1.64-2.64-.67-5-1.23-10-1.75-15-.15-1.44-.16-3.24,1.7-3.46s2.47,1.54,2.52,2.92c.2,5.35,1.91,10.7.18,16.06A21.17,21.17,0,0,1,562.14,562.25Z" transform="translate(-43.5 -64.64)"/>
    <path d="M278.19,85.65c-1.79-.6-1.82-2.18-1.92-3.55-.36-4.94-.58-9.88-.88-14.82-.07-1.13-.18-2.26,1.28-2.59a2.3,2.3,0,0,1,2.86,2c0,6,.79,12.09-.63,18.06C278.83,85.11,278.46,85.34,278.19,85.65Z" transform="translate(-43.5 -64.64)"/>
    <path d="M725.8,489.46c-2.4.13-4.8.24-7.19.4-1.46.1-2.42-.49-2.42-2,0-1.32.95-1.8,2.21-1.8,3.48,0,7-.06,10.43-.15,1.68-.05,3.35-.19,5-.36,2-.19,3.25.42,3.33,1.72s-1,2.16-3.09,2.24c-2.76.09-5.53,0-8.29,0Z" transform="translate(-43.5 -64.64)"/>
    <path d="M295.81,622.21a2.66,2.66,0,0,1-2.6-2.8c-.36-5.18,1.2-10,2.83-14.81.2-.59,1.44-1.39,1.85-1.23.76.31,1.3,1.22,1.83,2,.16.23,0,.71,0,1.06q-1.57,7.41-3.19,14.82C296.42,621.52,296.11,621.78,295.81,622.21Z" transform="translate(-43.5 -64.64)"/>
    <path d="M591.86,491.12c2.58.31,3.31,1.77,3.5,3.73.35,3.47.64,6.94,1.08,10.4.2,1.6.69,3.17,1.08,4.9-2.15.5-3.07-.93-3.79-2.15a10.61,10.61,0,0,1-1.33-4.07c-.45-3.7-.69-7.42-1-11.14A6.45,6.45,0,0,1,591.86,491.12Z" transform="translate(-43.5 -64.64)"/>
    <path d="M716.22,196.19c1.19-2.73,3.14-2.93,5-2.65,3.2.48,6.36,1.2,9.53,1.9a2.64,2.64,0,0,1,2.18,3.15c-.37,1.59-1.54,1.69-2.82,1.35C725.57,198.73,721,197.48,716.22,196.19Z" transform="translate(-43.5 -64.64)"/>
    <path d="M721,504.38c.64-.73,1.16-1.89,1.95-2.13,3.68-1.09,7.43-2,11.17-2.83a1.9,1.9,0,0,1,2.45,1.57c.28,1.38.08,3-1.5,3.19-4.49.44-8.95,1.76-13.5,1.11Z" transform="translate(-43.5 -64.64)"/>
    <path d="M360.56,368.44c-1.89-2.13-2.87-3.75-2.95-5.75-.1-2.89-.15-5.78-.12-8.67a2,2,0,0,1,1.9-2.25,2,2,0,0,1,2.33,1.79C362.08,358.31,362.55,363.1,360.56,368.44Z" transform="translate(-43.5 -64.64)"/>
    <path d="M728.74,523.79a19.18,19.18,0,0,1,6.6-14.62c.75-.68,1.72-1.41,2.49-.45a4.66,4.66,0,0,1,.73,2.89c0,.58-.75,1.23-1.3,1.66a17,17,0,0,0-5.08,7.36C731.64,522,731.34,523.77,728.74,523.79Z" transform="translate(-43.5 -64.64)"/>
    <path d="M726.66,234.46c-.44-6.16,2.9-9.7,6.83-12.86.54-.44,1.86-.7,2.25-.37a3.4,3.4,0,0,1,.93,2.45,3.85,3.85,0,0,1-1.11,2.18c-2,2.26-4,4.48-6.14,6.63A20.38,20.38,0,0,1,726.66,234.46Z" transform="translate(-43.5 -64.64)"/>
    <path d="M734.1,212c1.48,2.85,1.52,4-.27,4.73-3.84,1.56-7.68,3.26-12,3.52a2.72,2.72,0,0,1,1.14-3.62A44.6,44.6,0,0,1,734.1,212Z" transform="translate(-43.5 -64.64)"/>
    <path d="M722.19,473.77c1.15-1.82,2.33-1.8,3.43-1.06,3,2,5.9,4.12,8.8,6.26a2,2,0,0,1,.78,1.5,4.3,4.3,0,0,1-1,2.49c-.3.28-1.61-.12-2.17-.57-2.24-1.81-4.37-3.77-6.54-5.68C724.41,475.77,723.36,474.82,722.19,473.77Z" transform="translate(-43.5 -64.64)"/>
    <path d="M449.28,502.13c-2,1.86-4.39,1.95-6.56,2.26a24.49,24.49,0,0,1-5.74,0,2.45,2.45,0,0,1-2.39-3c.15-.66,1-1.7,1.46-1.65,4.24.51,8.45,1.21,12.67,1.86C448.82,501.64,448.9,501.78,449.28,502.13Z" transform="translate(-43.5 -64.64)"/>
    <path d="M265.16,244.75c2.47.74,4.57,1.25,6.55,2.05a2.19,2.19,0,0,1,.87,2c-.16.52-1.2.85-1.91,1.07a2.79,2.79,0,0,1-1.39-.28,13.28,13.28,0,0,0-9.17.29c-.56.24-1.42-.22-2.14-.36.26-.69.34-1.77.83-2C260.9,246.41,263.12,245.6,265.16,244.75Z" transform="translate(-43.5 -64.64)"/>
    <path d="M724.09,183.07c1.21.15,2.78-.11,3.58.55a49.06,49.06,0,0,1,5.42,5.64,2,2,0,0,1,.34,1.69,3.39,3.39,0,0,1-1.31,1.89,2.06,2.06,0,0,1-1.89-.53c-2.21-2.73-4.29-5.57-6.42-8.37Z" transform="translate(-43.5 -64.64)"/>
    <path d="M295.24,640.41c-2.1,0-3.31-1.26-3.21-2.78s1.13-1.7,2.28-1.69c1.47,0,2.93,1.4,2.55,2.75C296.63,639.49,295.59,640.05,295.24,640.41Z" transform="translate(-43.5 -64.64)"/>
    <path d="M358.29,384c.47-.38,1.13-1.3,2-1.49,1.32-.31,2.64,1.19,2.5,2.81a2.34,2.34,0,0,1-1.32,1.66C360.16,387.33,358.44,385.85,358.29,384Z" transform="translate(-43.5 -64.64)"/>
    <path d="M663.89,566.94c-1.84,0-3.23-1.31-3.15-2.51a1.86,1.86,0,0,1,2.18-1.83c1.42,0,2.37.79,2.16,2.21A6.45,6.45,0,0,1,663.89,566.94Z" transform="translate(-43.5 -64.64)"/>
    <path d="M495.44,172.27c-1.13-1.09-2.17-1.67-2.45-2.5-.35-1,.48-1.77,1.67-1.73s2.33.41,2.32,1.71C497,170.46,496.15,171.16,495.44,172.27Z" transform="translate(-43.5 -64.64)"/>
    <path d="M278.54,103.2c-.72-1.31-1.4-2-1.42-2.78,0-.42,1-1.14,1.68-1.22,1-.14,2.07.42,1.84,1.59C280.49,101.51,279.57,102.07,278.54,103.2Z" transform="translate(-43.5 -64.64)"/>
  </g>
</svg>
